<?xml version="1.0" standalone="no"?>
<!DOCTYPE svg PUBLIC "-//W3C//DTD SVG 20010904//EN"
 "http://www.w3.org/TR/2001/REC-SVG-20010904/DTD/svg10.dtd">
<svg version="1.0" xmlns="http://www.w3.org/2000/svg"
 width="667.000000pt" height="842.000000pt" viewBox="0 0 667.000000 842.000000"
 preserveAspectRatio="xMidYMid meet">

<g transform="translate(0.000000,842.000000) scale(0.100000,-0.100000)"
fill="#000000" stroke="none">
<path d="M2301 8379 c-46 -54 -35 -56 15 -2 22 23 36 43 30 42 -6 0 -26 -18
-45 -40z"/>
<path d="M2423 8380 c0 -25 2 -35 4 -22 2 12 2 32 0 45 -2 12 -4 2 -4 -23z"/>
<path d="M4340 8357 c0 -5 9 -20 20 -34 11 -14 20 -21 20 -15 0 12 -39 60 -40
49z"/>
<path d="M2432 8295 c0 -16 2 -22 5 -12 2 9 2 23 0 30 -3 6 -5 -1 -5 -18z"/>
<path d="M2422 8214 c-1 -17 -4 -47 -7 -65 l-5 -34 11 34 c5 18 8 47 6 65 l-4
31 -1 -31z"/>
<path d="M1888 8223 c6 -2 18 -2 25 0 6 3 1 5 -13 5 -14 0 -19 -2 -12 -5z"/>
<path d="M2212 8210 c0 -14 2 -19 5 -12 2 6 2 18 0 25 -3 6 -5 1 -5 -13z"/>
<path d="M4710 8213 c0 -15 2 -16 10 -3 7 12 12 11 31 -5 l22 -20 -12 23 c-14
26 -51 30 -51 5z"/>
<path d="M1935 8150 c17 -153 17 -217 1 -279 -18 -70 -16 -92 4 -39 20 54 23
204 6 288 -9 41 -13 55 -11 30z"/>
<path d="M1826 8155 c-9 -14 -13 -25 -9 -25 10 0 36 40 30 46 -2 3 -12 -7 -21
-21z"/>
<path d="M4800 8160 c0 -3 14 -32 30 -64 17 -32 30 -54 30 -47 0 6 -9 28 -20
49 -22 42 -40 70 -40 62z"/>
<path d="M2196 8128 c-3 -13 -5 -72 -4 -133 l2 -110 6 130 c3 72 5 131 4 133
-1 1 -4 -8 -8 -20z"/>
<path d="M2616 8135 c-21 -7 -44 -19 -50 -25 -6 -7 5 -4 24 6 24 12 54 17 99
16 73 -2 77 3 11 11 -28 4 -60 1 -84 -8z"/>
<path d="M3945 8145 c22 -10 97 -23 89 -15 -5 5 -29 11 -54 15 -25 3 -40 3
-35 0z"/>
<path d="M3898 8133 c6 -2 18 -2 25 0 6 3 1 5 -13 5 -14 0 -19 -2 -12 -5z"/>
<path d="M2775 8120 c27 -12 43 -12 25 0 -8 5 -22 9 -30 9 -10 0 -8 -3 5 -9z"/>
<path d="M4431 8114 c0 -11 3 -14 6 -6 3 7 2 16 -1 19 -3 4 -6 -2 -5 -13z"/>
<path d="M4220 8117 c0 -11 30 -67 35 -67 6 0 -16 52 -27 65 -4 5 -8 6 -8 2z"/>
<path d="M2821 8103 c4 -22 -3 -41 -21 -61 -12 -12 -16 -22 -11 -22 11 0 51
53 51 68 0 6 -5 14 -10 17 -6 4 -10 3 -9 -2z"/>
<path d="M4135 8040 c21 -22 41 -40 44 -40 3 0 -13 18 -34 40 -21 22 -41 40
-44 40 -3 0 13 -18 34 -40z"/>
<path d="M2484 8049 c-19 -22 -19 -22 3 -10 24 12 39 31 25 31 -5 0 -17 -10
-28 -21z"/>
<path d="M4442 8034 c-1 -23 -4 -63 -7 -90 l-5 -49 11 40 c5 22 8 63 6 90 -3
47 -3 47 -5 9z"/>
<path d="M3840 8026 c14 -15 34 -33 45 -39 18 -9 19 -9 6 7 -8 9 -28 27 -45
38 l-31 22 25 -28z"/>
<path d="M4861 8004 c0 -11 3 -14 6 -6 3 7 2 16 -1 19 -3 4 -6 -2 -5 -13z"/>
<path d="M1743 7925 c0 -33 2 -45 4 -27 2 18 2 45 0 60 -2 15 -4 0 -4 -33z"/>
<path d="M4190 7971 c0 -5 17 -13 38 -19 20 -5 54 -17 75 -26 20 -9 37 -14 37
-11 0 7 -127 65 -141 65 -5 0 -9 -4 -9 -9z"/>
<path d="M2340 7949 c0 -5 9 -9 20 -9 11 0 20 2 20 4 0 2 -9 6 -20 9 -11 3
-20 1 -20 -4z"/>
<path d="M2305 7930 c-19 -8 -19 -9 3 -9 12 -1 22 4 22 9 0 6 -1 10 -2 9 -2 0
-12 -4 -23 -9z"/>
<path d="M2527 7928 c6 -10 95 -10 110 0 7 4 -16 8 -51 7 -35 0 -62 -3 -59 -7z"/>
<path d="M3993 7928 c7 -4 30 -8 52 -8 22 0 45 4 52 8 6 4 -17 7 -52 7 -35 0
-58 -3 -52 -7z"/>
<path d="M1424 7898 c-4 -7 -3 -8 4 -4 6 4 18 -5 26 -21 18 -33 21 -25 4 12
-12 27 -23 31 -34 13z"/>
<path d="M5185 7890 c3 -5 8 -10 11 -10 2 0 4 5 4 10 0 6 -5 10 -11 10 -5 0
-7 -4 -4 -10z"/>
<path d="M5210 7894 c0 -3 11 -22 25 -42 30 -44 33 -33 4 14 -19 32 -29 41
-29 28z"/>
<path d="M4463 7860 c12 -16 29 -31 37 -34 25 -9 93 -50 139 -84 24 -17 51
-32 60 -32 25 1 -29 41 -151 114 -89 53 -104 59 -85 36z"/>
<path d="M2094 7830 c-62 -31 -179 -118 -171 -127 3 -2 38 18 79 45 40 28 90
58 110 68 20 9 39 23 42 31 7 17 8 18 -60 -17z"/>
<path d="M2288 7853 c6 -2 18 -2 25 0 6 3 1 5 -13 5 -14 0 -19 -2 -12 -5z"/>
<path d="M2380 7851 c30 -5 64 -12 75 -16 16 -6 17 -5 9 4 -7 7 -40 14 -75 16
l-64 4 55 -8z"/>
<path d="M4172 7838 c-23 -11 -41 -22 -39 -24 2 -2 19 4 38 13 18 9 63 20 99
23 l65 7 -60 1 c-42 1 -73 -5 -103 -20z"/>
<path d="M1743 7795 c0 -33 2 -45 4 -27 2 18 2 45 0 60 -2 15 -4 0 -4 -33z"/>
<path d="M4710 7809 c0 -4 7 -22 15 -40 8 -19 14 -27 14 -19 0 14 -28 72 -29
59z"/>
<path d="M2193 7775 c8 -17 25 -39 38 -50 19 -16 18 -13 -6 20 -41 56 -50 65
-32 30z"/>
<path d="M4099 7783 c-13 -16 -12 -17 4 -4 16 13 21 21 13 21 -2 0 -10 -8 -17
-17z"/>
<path d="M4439 7783 c-13 -16 -12 -17 4 -4 9 7 17 15 17 17 0 8 -8 3 -21 -13z"/>
<path d="M1341 7759 c-6 -18 -11 -39 -10 -48 0 -9 7 4 14 29 16 51 13 67 -4
19z"/>
<path d="M2530 7777 c0 -2 15 -16 33 -33 l32 -29 -29 33 c-28 30 -36 37 -36
29z"/>
<path d="M5112 7731 c-7 -29 -12 -62 -11 -74 0 -12 7 7 15 43 8 36 13 69 11
74 -2 5 -8 -15 -15 -43z"/>
<path d="M4058 7743 c-18 -21 -31 -43 -25 -43 2 0 13 14 25 30 25 33 24 41 0
13z"/>
<path d="M4370 7702 c-25 -26 -61 -60 -80 -75 -31 -24 -31 -26 -5 -11 37 22
90 70 117 107 28 39 19 33 -32 -21z"/>
<path d="M2261 7694 c6 -16 98 -94 111 -94 6 0 -2 10 -18 22 -16 12 -44 35
-63 52 -18 17 -32 26 -30 20z"/>
<path d="M2610 7680 c6 -11 13 -20 16 -20 2 0 0 9 -6 20 -6 11 -13 20 -16 20
-2 0 0 -9 6 -20z"/>
<path d="M5311 7654 c0 -11 3 -14 6 -6 3 7 2 16 -1 19 -3 4 -6 -2 -5 -13z"/>
<path d="M2636 7637 c3 -10 9 -15 12 -12 3 3 0 11 -7 18 -10 9 -11 8 -5 -6z"/>
<path d="M1313 7600 c0 -25 2 -35 4 -22 2 12 2 32 0 45 -2 12 -4 2 -4 -23z"/>
<path d="M5313 7570 c0 -25 2 -35 4 -22 2 12 2 32 0 45 -2 12 -4 2 -4 -23z"/>
<path d="M1719 7569 c-23 -19 -23 -20 -2 -10 12 6 25 16 28 21 10 16 -1 12
-26 -11z"/>
<path d="M2110 7586 c0 -3 9 -10 20 -16 11 -6 20 -8 20 -6 0 3 -9 10 -20 16
-11 6 -20 8 -20 6z"/>
<path d="M4460 7549 c-44 -40 -44 -40 -5 -11 22 16 49 34 60 40 14 8 16 11 5
12 -8 0 -35 -18 -60 -41z"/>
<path d="M4906 7555 c25 -33 44 -45 44 -27 0 10 -53 62 -64 62 -4 0 5 -16 20
-35z"/>
<path d="M4148 7563 c7 -3 16 -2 19 1 4 3 -2 6 -13 5 -11 0 -14 -3 -6 -6z"/>
<path d="M2175 7540 c10 -11 20 -20 23 -20 3 0 -3 9 -13 20 -10 11 -20 20 -23
20 -3 0 3 -9 13 -20z"/>
<path d="M5102 7530 c0 -14 2 -19 5 -12 2 6 2 18 0 25 -3 6 -5 1 -5 -13z"/>
<path d="M1321 7524 c0 -11 3 -14 6 -6 3 7 2 16 -1 19 -3 4 -6 -2 -5 -13z"/>
<path d="M4823 7490 c-28 -28 -48 -50 -44 -50 4 0 29 23 56 50 64 65 55 64
-12 0z"/>
<path d="M4955 7511 c-3 -5 -1 -12 4 -15 5 -3 11 1 15 9 6 16 -9 21 -19 6z"/>
<path d="M1612 7480 c-27 -25 -28 -34 -3 -21 10 6 21 8 25 6 3 -3 4 -2 1 2 -3
3 0 12 6 20 18 21 -5 15 -29 -7z"/>
<path d="M5007 7476 c15 -13 30 -22 33 -19 6 6 -38 43 -52 43 -5 0 4 -11 19
-24z"/>
<path d="M1010 7480 c0 -5 7 -10 15 -10 8 0 15 -3 15 -7 0 -5 10 -19 21 -33
l20 -25 -12 25 c-22 46 -59 78 -59 50z"/>
<path d="M2244 7465 c9 -13 16 -32 16 -42 0 -12 3 -14 11 -6 9 9 6 19 -10 42
-26 37 -40 42 -17 6z"/>
<path d="M5589 7463 l-24 -27 29 18 c23 15 30 16 37 5 5 -8 9 -18 9 -23 0 -5
2 -7 5 -4 8 7 -13 58 -23 58 -5 0 -19 -12 -33 -27z"/>
<path d="M1336 7435 c6 -48 10 -63 17 -54 2 2 -2 27 -9 54 l-13 50 5 -50z"/>
<path d="M1820 7472 c0 -12 100 -76 107 -68 4 3 2 6 -4 6 -6 0 -31 16 -57 35
-25 20 -46 32 -46 27z"/>
<path d="M4990 7461 c0 -5 7 -12 16 -15 14 -5 15 -4 4 9 -14 17 -20 19 -20 6z"/>
<path d="M5121 7454 c0 -11 3 -14 6 -6 3 7 2 16 -1 19 -3 4 -6 -2 -5 -13z"/>
<path d="M4357 7443 c-10 -9 -9 -23 1 -23 5 0 9 7 9 15 0 17 -1 18 -10 8z"/>
<path d="M971 7424 c0 -11 3 -14 6 -6 3 7 2 16 -1 19 -3 4 -6 -2 -5 -13z"/>
<path d="M1529 7373 l-34 -38 38 34 c20 19 37 36 37 38 0 8 -8 0 -41 -34z"/>
<path d="M1080 7395 c1 -6 7 -21 16 -35 l15 -25 -7 25 c-7 26 -24 52 -24 35z"/>
<path d="M950 7355 c0 -8 2 -15 4 -15 2 0 6 7 10 15 3 8 1 15 -4 15 -6 0 -10
-7 -10 -15z"/>
<path d="M2018 7363 c7 -3 16 -2 19 1 4 3 -2 6 -13 5 -11 0 -14 -3 -6 -6z"/>
<path d="M2148 7363 c7 -3 16 -2 19 1 4 3 -2 6 -13 5 -11 0 -14 -3 -6 -6z"/>
<path d="M5100 7366 c0 -2 8 -10 18 -17 15 -13 16 -12 3 4 -13 16 -21 21 -21
13z"/>
<path d="M2073 7353 c9 -2 23 -2 30 0 6 3 -1 5 -18 5 -16 0 -22 -2 -12 -5z"/>
<path d="M4543 7353 c9 -2 23 -2 30 0 6 3 -1 5 -18 5 -16 0 -22 -2 -12 -5z"/>
<path d="M938 7278 c-3 -29 -2 -78 2 -108 6 -47 7 -39 9 53 0 59 -1 107 -3
107 -2 0 -5 -24 -8 -52z"/>
<path d="M5496 7305 c-3 -9 -6 -22 -5 -28 0 -7 5 -1 10 12 5 13 8 26 5 28 -2
2 -6 -3 -10 -12z"/>
<path d="M5691 7304 c0 -11 3 -14 6 -6 3 7 2 16 -1 19 -3 4 -6 -2 -5 -13z"/>
<path d="M1766 7292 c17 -15 104 -63 104 -57 0 8 -92 65 -104 65 -6 0 -6 -3 0
-8z"/>
<path d="M4827 7279 c-22 -11 -37 -22 -35 -24 4 -5 88 35 88 41 0 8 -16 3 -53
-17z"/>
<path d="M5703 7215 c0 -33 2 -45 4 -27 2 18 2 45 0 60 -2 15 -4 0 -4 -33z"/>
<path d="M5482 7240 c0 -14 2 -19 5 -12 2 6 2 18 0 25 -3 6 -5 1 -5 -13z"/>
<path d="M1151 7224 c0 -11 3 -14 6 -6 3 7 2 16 -1 19 -3 4 -6 -2 -5 -13z"/>
<path d="M1330 7197 c-8 -7 -24 -24 -35 -37 -12 -15 -4 -11 18 9 33 31 42 42
35 41 -2 0 -10 -6 -18 -13z"/>
<path d="M1920 7176 c0 -8 -10 -22 -22 -30 -12 -9 -19 -18 -17 -21 3 -2 18 8
33 24 17 18 24 31 17 35 -6 4 -11 0 -11 -8z"/>
<path d="M1163 7130 c0 -30 2 -43 4 -27 2 15 2 39 0 55 -2 15 -4 2 -4 -28z"/>
<path d="M1390 7177 c0 -9 72 -57 85 -57 5 0 1 6 -10 13 -50 35 -75 49 -75 44z"/>
<path d="M5326 7158 c10 -14 21 -24 23 -22 3 3 -6 15 -18 27 l-24 22 19 -27z"/>
<path d="M4712 7159 c4 -12 48 -46 48 -37 0 2 -12 15 -26 27 -15 13 -24 17
-22 10z"/>
<path d="M5190 7145 c-19 -14 -30 -25 -24 -25 10 0 73 49 63 50 -3 0 -20 -11
-39 -25z"/>
<path d="M5280 7165 c0 -2 10 -10 23 -16 20 -11 21 -11 8 4 -13 16 -31 23 -31
12z"/>
<path d="M1275 7092 c-34 -44 -40 -59 -16 -37 23 20 45 54 39 60 -2 2 -12 -9
-23 -23z"/>
<path d="M1236 7091 c-10 -11 -16 -25 -14 -31 2 -6 11 3 21 20 21 34 18 39 -7
11z"/>
<path d="M951 7084 c0 -11 3 -14 6 -6 3 7 2 16 -1 19 -3 4 -6 -2 -5 -13z"/>
<path d="M1610 7059 c33 -9 118 -9 150 0 14 5 -17 8 -75 7 -56 0 -89 -3 -75
-7z"/>
<path d="M4870 7060 c31 -10 105 -10 145 -1 18 4 -10 7 -70 8 -61 0 -90 -3
-75 -7z"/>
<path d="M5370 7056 c0 -2 8 -10 18 -17 15 -13 16 -12 3 4 -13 16 -21 21 -21
13z"/>
<path d="M2040 6908 c0 -153 -7 -177 -66 -221 -23 -17 -24 -17 -55 15 l-31 33
21 -31 c39 -59 44 -59 95 -4 l46 49 0 151 c0 82 -2 150 -5 150 -3 0 -5 -64 -5
-142z"/>
<path d="M1183 6968 c-18 -21 -37 -58 -29 -58 2 0 15 18 30 40 30 45 29 51 -1
18z"/>
<path d="M1891 6930 c0 -36 4 -74 8 -85 5 -11 6 12 4 55 -6 98 -11 112 -12 30z"/>
<path d="M1932 6925 c-1 -38 -5 -88 -8 -110 -4 -32 -3 -36 6 -23 6 11 9 54 7
110 -3 84 -3 86 -5 23z"/>
<path d="M5616 6934 c-15 -31 -25 -58 -23 -60 2 -2 16 21 31 52 16 30 26 57
24 59 -2 3 -16 -21 -32 -51z"/>
<path d="M5905 6933 c-30 -32 -55 -62 -55 -66 0 -5 27 20 60 55 50 52 62 60
71 48 9 -12 10 -12 7 -1 -8 30 -29 21 -83 -36z"/>
<path d="M641 6958 c1 -17 2 -19 6 -5 5 20 24 22 41 5 8 -8 12 -8 12 -1 0 6
-7 14 -16 17 -30 12 -44 6 -43 -16z"/>
<path d="M2995 6970 c3 -5 10 -10 16 -10 5 0 9 5 9 10 0 6 -7 10 -16 10 -8 0
-12 -4 -9 -10z"/>
<path d="M3720 6970 c0 -5 5 -10 10 -10 6 0 10 5 10 10 0 6 -4 10 -10 10 -5 0
-10 -4 -10 -10z"/>
<path d="M3833 6973 c9 -2 23 -2 30 0 6 3 -1 5 -18 5 -16 0 -22 -2 -12 -5z"/>
<path d="M4232 6918 l2 -63 3 53 c3 43 7 52 23 52 10 0 22 5 25 10 4 6 -7 10
-24 10 l-31 0 2 -62z"/>
<path d="M4350 6971 c0 -6 5 -11 10 -11 16 0 12 -104 -5 -126 -18 -24 -19 -40
-1 -25 18 15 37 96 32 136 -3 28 -36 51 -36 26z"/>
<path d="M4290 6940 c0 -6 7 -10 15 -10 8 0 15 2 15 4 0 2 -7 6 -15 10 -8 3
-15 1 -15 -4z"/>
<path d="M5991 6934 c0 -11 3 -14 6 -6 3 7 2 16 -1 19 -3 4 -6 -2 -5 -13z"/>
<path d="M2508 6933 c7 -3 16 -2 19 1 4 3 -2 6 -13 5 -11 0 -14 -3 -6 -6z"/>
<path d="M2908 6933 c7 -3 16 -2 19 1 4 3 -2 6 -13 5 -11 0 -14 -3 -6 -6z"/>
<path d="M4264 6926 c-3 -8 -4 -29 -2 -48 3 -29 4 -27 8 15 5 48 3 58 -6 33z"/>
<path d="M3013 6870 c0 -36 2 -50 4 -32 2 17 2 47 0 65 -2 17 -4 3 -4 -33z"/>
<path d="M3731 6904 c0 -11 3 -14 6 -6 3 7 2 16 -1 19 -3 4 -6 -2 -5 -13z"/>
<path d="M4341 6904 c0 -11 3 -14 6 -6 3 7 2 16 -1 19 -3 4 -6 -2 -5 -13z"/>
<path d="M1530 6905 c0 -3 18 -13 41 -21 31 -13 39 -21 36 -35 -3 -11 -1 -17
4 -13 20 12 7 35 -31 54 -41 21 -50 24 -50 15z"/>
<path d="M2976 6901 c-4 -5 -2 -20 3 -33 9 -21 10 -21 10 10 1 32 -3 39 -13
23z"/>
<path d="M3841 6880 c-9 -126 -8 -220 2 -220 11 0 13 95 4 215 -3 40 -4 40 -6
5z"/>
<path d="M5405 6900 c3 -5 11 -10 16 -10 6 0 7 5 4 10 -3 6 -11 10 -16 10 -6
0 -7 -4 -4 -10z"/>
<path d="M6007 6852 c3 -35 9 -76 14 -90 10 -32 2 49 -12 113 -6 30 -7 25 -2
-23z"/>
<path d="M1030 6895 c0 -5 5 -17 10 -25 5 -8 10 -10 10 -5 0 6 -5 17 -10 25
-5 8 -10 11 -10 5z"/>
<path d="M5028 6879 c-20 -11 -24 -44 -6 -55 8 -5 9 -2 4 11 -5 14 0 24 16 37
25 19 14 24 -14 7z"/>
<path d="M781 6846 c12 -20 23 -36 25 -36 7 0 -25 58 -36 65 -5 3 -1 -10 11
-29z"/>
<path d="M4335 6870 c-3 -5 -1 -10 4 -10 6 0 11 5 11 10 0 6 -2 10 -4 10 -3 0
-8 -4 -11 -10z"/>
<path d="M3733 6810 c0 -36 2 -50 4 -32 2 17 2 47 0 65 -2 17 -4 3 -4 -33z"/>
<path d="M1051 6834 c0 -11 3 -14 6 -6 3 7 2 16 -1 19 -3 4 -6 -2 -5 -13z"/>
<path d="M4240 6835 c0 -8 4 -15 10 -15 5 0 7 7 4 15 -4 8 -8 15 -10 15 -2 0
-4 -7 -4 -15z"/>
<path d="M5829 6833 c-13 -16 -12 -17 4 -4 9 7 17 15 17 17 0 8 -8 3 -21 -13z"/>
<path d="M4601 6814 c0 -11 3 -14 6 -6 3 7 2 16 -1 19 -3 4 -6 -2 -5 -13z"/>
<path d="M1543 6774 c-29 -28 -36 -38 -18 -26 31 21 83 72 73 72 -3 0 -28 -21
-55 -46z"/>
<path d="M1035 6799 c-4 -6 -5 -12 -2 -15 2 -3 7 2 10 11 7 17 1 20 -8 4z"/>
<path d="M5790 6766 c-29 -68 -24 -82 6 -17 13 30 22 56 19 59 -2 3 -14 -16
-25 -42z"/>
<path d="M5605 6773 c8 -18 18 -33 20 -33 10 0 4 16 -16 40 l-20 25 16 -32z"/>
<path d="M4534 6779 c-3 -6 4 -21 16 -33 l22 -21 -16 26 c-9 14 -13 29 -9 32
3 4 4 7 0 7 -3 0 -9 -5 -13 -11z"/>
<path d="M5060 6786 c0 -2 8 -10 18 -17 15 -13 16 -12 3 4 -13 16 -21 21 -21
13z"/>
<path d="M1996 6765 c-9 -26 -7 -32 5 -12 6 10 9 21 6 23 -2 3 -7 -2 -11 -11z"/>
<path d="M1866 6757 c3 -10 9 -15 12 -12 3 3 0 11 -7 18 -10 9 -11 8 -5 -6z"/>
<path d="M1920 6761 c0 -6 4 -13 10 -16 6 -3 7 1 4 9 -7 18 -14 21 -14 7z"/>
<path d="M4715 6759 c-4 -6 -5 -12 -2 -15 2 -3 7 2 10 11 7 17 1 20 -8 4z"/>
<path d="M5100 6756 c0 -2 8 -10 18 -17 15 -13 16 -12 3 4 -13 16 -21 21 -21
13z"/>
<path d="M1068 6743 c7 -3 16 -2 19 1 4 3 -2 6 -13 5 -11 0 -14 -3 -6 -6z"/>
<path d="M6003 6670 c-7 -35 -10 -66 -8 -68 7 -7 26 80 23 106 -2 18 -7 5 -15
-38z"/>
<path d="M4232 6485 c-2 -221 5 -296 29 -311 6 -3 5 4 -3 17 -9 18 -14 91 -18
274 l-6 250 -2 -230z"/>
<path d="M4370 6460 c0 -137 3 -250 8 -250 4 0 7 113 7 250 0 138 -3 250 -7
250 -5 0 -8 -112 -8 -250z"/>
<path d="M3031 6680 c-24 -11 -42 -23 -39 -25 3 -3 20 2 38 12 19 9 47 20 64
24 28 6 28 7 6 8 -14 0 -45 -8 -69 -19z"/>
<path d="M3370 6684 c30 -8 73 -29 95 -46 39 -31 39 -31 15 -3 -31 34 -95 65
-135 64 -23 0 -17 -4 25 -15z"/>
<path d="M4600 6693 c0 -6 8 -17 18 -26 14 -13 21 -14 30 -5 17 17 15 28 -3
22 -8 -4 -22 -1 -30 6 -8 7 -15 8 -15 3z"/>
<path d="M3660 6679 c0 -5 5 -7 10 -4 6 3 10 8 10 11 0 2 -4 4 -10 4 -5 0 -10
-5 -10 -11z"/>
<path d="M862 6625 c0 -56 1 -58 9 -23 5 22 5 47 -1 60 -7 18 -9 9 -8 -37z"/>
<path d="M946 6634 c-9 -20 -15 -39 -12 -41 3 -3 12 12 21 32 20 49 14 56 -9
9z"/>
<path d="M983 6643 c-3 -10 -8 -22 -11 -27 -3 -5 0 -6 5 -3 11 7 25 47 17 47
-3 0 -7 -8 -11 -17z"/>
<path d="M4264 6445 c0 -121 2 -169 3 -107 2 62 2 161 0 220 -1 59 -3 8 -3
-113z"/>
<path d="M4340 6455 c3 -112 7 -206 10 -208 3 -3 4 85 2 196 -2 111 -6 205
-10 209 -4 4 -5 -85 -2 -197z"/>
<path d="M5762 6620 c0 -19 2 -27 5 -17 2 9 2 25 0 35 -3 9 -5 1 -5 -18z"/>
<path d="M3680 6621 c0 -25 6 -27 13 -6 4 8 2 17 -3 20 -6 4 -10 -3 -10 -14z"/>
<path d="M5692 6609 c6 -16 12 -28 14 -26 5 5 -13 57 -20 57 -3 0 0 -14 6 -31z"/>
<path d="M641 6600 c0 -18 27 -79 28 -64 1 7 -6 27 -14 45 -8 19 -14 27 -14
19z"/>
<path d="M5670 6598 c0 -20 31 -101 36 -95 2 2 -5 28 -16 58 -10 30 -19 46
-20 37z"/>
<path d="M2900 6549 c-12 -22 -20 -44 -18 -49 2 -4 13 14 25 41 26 59 21 65
-7 8z"/>
<path d="M3836 6418 c6 -146 16 -209 31 -195 2 3 0 14 -6 25 -6 11 -11 87 -12
176 0 89 -4 156 -10 156 -5 0 -7 -64 -3 -162z"/>
<path d="M3661 6548 c-1 -22 3 -28 21 -28 19 0 20 2 6 13 -9 6 -18 19 -21 27
-3 8 -6 3 -6 -12z"/>
<path d="M2930 6549 c0 -5 5 -7 10 -4 6 3 10 8 10 11 0 2 -4 4 -10 4 -5 0 -10
-5 -10 -11z"/>
<path d="M2911 6499 c-6 -18 -11 -41 -10 -53 0 -12 6 2 14 29 15 57 13 72 -4
24z"/>
<path d="M1024 6494 c-19 -15 -19 -16 1 -8 11 5 72 10 135 12 127 4 190 -8
190 -36 0 -20 -28 -67 -61 -103 -13 -14 -31 -34 -39 -45 -14 -19 -14 -19 8 0
31 27 98 117 106 142 5 17 0 25 -28 38 -49 23 -283 23 -312 0z"/>
<path d="M5301 6495 c-29 -13 -32 -18 -26 -42 7 -30 60 -106 95 -138 18 -16
20 -16 14 -2 -3 9 -10 17 -14 17 -9 0 -90 118 -90 131 0 15 44 33 95 40 l50 6
-45 1 c-25 1 -60 -5 -79 -13z"/>
<path d="M5520 6501 c41 -4 86 -13 100 -20 24 -13 24 -13 7 5 -14 15 -34 19
-100 21 l-82 1 75 -7z"/>
<path d="M3733 6430 c0 -36 2 -50 4 -32 2 17 2 47 0 65 -2 17 -4 3 -4 -33z"/>
<path d="M5919 6468 c-7 -13 -25 -40 -41 -60 -16 -21 -25 -38 -20 -38 5 0 20
17 34 38 32 48 50 82 44 82 -3 0 -11 -10 -17 -22z"/>
<path d="M2996 6465 c-3 -9 -6 -24 -5 -33 0 -9 5 -4 10 12 9 32 6 48 -5 21z"/>
<path d="M3574 6180 c0 -162 2 -229 3 -147 2 81 2 213 0 295 -1 81 -3 14 -3
-148z"/>
<path d="M740 6413 c18 -24 35 -43 37 -43 9 0 -18 37 -43 60 -24 22 -23 20 6
-17z"/>
<path d="M2872 6430 c0 -14 2 -19 5 -12 2 6 2 18 0 25 -3 6 -5 1 -5 -13z"/>
<path d="M366 6324 c-4 -53 -5 -99 -2 -101 2 -3 8 36 11 86 4 50 12 91 17 91
17 0 53 -22 86 -53 17 -17 32 -28 32 -23 0 15 -105 96 -126 96 -7 0 -14 -37
-18 -96z"/>
<path d="M2982 6335 c-1 -66 2 -84 18 -105 l20 -25 -2 105 -2 105 -6 -85 c-6
-97 -18 -89 -23 15 l-3 70 -2 -80z"/>
<path d="M6204 6400 c-12 -5 -25 -13 -29 -19 -9 -15 -5 -14 40 9 39 20 30 27
-11 10z"/>
<path d="M2873 6325 c0 -22 2 -30 4 -17 2 12 2 30 0 40 -3 9 -5 -1 -4 -23z"/>
<path d="M3733 6290 c0 -41 2 -58 4 -37 2 20 2 54 0 75 -2 20 -4 3 -4 -38z"/>
<path d="M6094 6306 c-19 -19 -34 -40 -34 -47 0 -7 1 -10 3 -8 1 2 20 23 42
47 47 50 38 57 -11 8z"/>
<path d="M1192 6280 c-46 -25 -51 -32 -14 -19 17 6 36 17 43 25 14 17 13 17
-29 -6z"/>
<path d="M5408 6287 c14 -16 95 -48 121 -46 9 0 -7 9 -35 19 -28 10 -62 24
-75 31 -22 11 -23 11 -11 -4z"/>
<path d="M2866 6272 c-2 -4 -1 -14 5 -22 7 -12 9 -10 9 8 0 23 -5 28 -14 14z"/>
<path d="M2900 6234 c0 -7 9 -22 21 -35 16 -19 18 -20 10 -4 -17 34 -31 51
-31 39z"/>
<path d="M590 6223 c0 -4 5 -15 10 -23 8 -13 10 -13 10 2 0 9 -4 20 -10 23 -5
3 -10 3 -10 -2z"/>
<path d="M756 6204 c-4 -14 -5 -28 -3 -31 3 -2 8 8 11 23 4 14 5 28 3 31 -3 2
-8 -8 -11 -23z"/>
<path d="M2876 6203 c4 -12 12 -28 20 -34 20 -17 17 2 -6 31 -18 24 -19 24
-14 3z"/>
<path d="M3771 6215 c0 -5 6 -19 14 -29 8 -11 15 -15 15 -10 0 6 -7 19 -15 30
-8 10 -14 15 -14 9z"/>
<path d="M4276 6205 c4 -8 8 -15 10 -15 2 0 4 7 4 15 0 8 -4 15 -10 15 -5 0
-7 -7 -4 -15z"/>
<path d="M772 6138 c-12 -39 -20 -73 -18 -75 2 -2 14 28 25 68 12 39 20 73 18
75 -2 2 -14 -28 -25 -68z"/>
<path d="M3740 6198 c0 -9 9 -26 20 -39 l21 -24 -17 35 c-21 43 -24 47 -24 28z"/>
<path d="M371 6169 c0 -19 4 -43 9 -54 6 -13 7 -2 3 30 -7 59 -13 72 -12 24z"/>
<path d="M2590 6194 c0 -5 14 -29 30 -54 30 -45 41 -49 19 -7 -17 31 -49 71
-49 61z"/>
<path d="M2579 6145 c14 -30 40 -61 41 -50 0 6 -12 24 -26 40 -14 17 -21 21
-15 10z"/>
<path d="M4345 6125 c18 -27 20 -51 23 -236 l4 -206 -34 -10 -33 -11 42 -1 43
-1 -6 198 c-6 210 -14 262 -41 283 -15 12 -14 9 2 -16z"/>
<path d="M5891 6139 c-1 -19 30 -112 35 -106 2 2 -4 30 -15 63 -10 32 -19 52
-20 43z"/>
<path d="M5986 6128 c-3 -13 -5 -41 -5 -63 1 -33 3 -29 9 20 8 63 7 81 -4 43z"/>
<path d="M2983 6123 c5 -7 15 -53 22 -103 8 -49 19 -98 24 -107 13 -23 14 -1
2 29 -6 13 -13 53 -16 90 -4 42 -13 75 -23 86 -9 10 -13 12 -9 5z"/>
<path d="M2965 6095 c3 -11 11 -56 16 -100 6 -44 15 -84 21 -90 8 -7 9 -4 4
10 -4 10 -11 52 -16 93 -5 40 -15 81 -21 90 -9 15 -10 15 -4 -3z"/>
<path d="M3857 6053 c6 -79 11 -89 12 -23 0 30 -3 61 -8 68 -4 7 -6 -13 -4
-45z"/>
<path d="M4320 6105 c0 -6 5 -16 10 -21 7 -7 9 -77 8 -190 l-3 -179 -30 0 -30
0 -5 165 c-4 122 -9 172 -20 190 -15 24 -15 24 -17 -30 -2 -30 -4 -128 -5
-218 l-3 -162 25 0 c22 1 23 2 8 11 -16 9 -18 29 -18 196 0 122 3 184 10 177
5 -5 11 -84 12 -174 l3 -165 40 0 40 0 3 185 c2 152 0 189 -12 205 -9 11 -16
15 -16 10z"/>
<path d="M2520 6084 c0 -7 7 -25 15 -40 12 -24 15 -26 15 -8 0 21 -29 68 -30
48z"/>
<path d="M3723 6072 c0 -12 5 -22 9 -22 11 0 10 12 -2 30 -7 12 -9 10 -7 -8z"/>
<path d="M5871 6075 c0 -11 6 -33 14 -50 l15 -30 -6 35 c-8 44 -23 75 -23 45z"/>
<path d="M6221 6080 c-1 -18 -27 -69 -56 -115 -14 -21 -15 -26 -4 -18 25 20
71 111 66 131 -4 13 -5 13 -6 2z"/>
<path d="M2866 6065 c4 -8 10 -15 15 -15 5 0 10 -19 11 -42 1 -40 1 -41 5 -9
3 19 -1 45 -8 58 -14 25 -32 32 -23 8z"/>
<path d="M3839 6055 c-13 -20 8 -166 26 -183 16 -16 17 -16 4 8 -7 14 -16 61
-19 105 -3 44 -8 76 -11 70z"/>
<path d="M935 6040 c-16 -7 -17 -9 -3 -9 9 -1 20 4 23 9 7 11 7 11 -20 0z"/>
<path d="M1160 6031 c0 -25 6 -27 13 -6 4 8 2 17 -3 20 -6 4 -10 -3 -10 -14z"/>
<path d="M5460 6036 c0 -18 37 -106 45 -106 3 0 -2 17 -11 38 -10 20 -17 47
-17 60 1 12 -3 22 -8 22 -5 0 -9 -6 -9 -14z"/>
<path d="M3735 5950 c3 -94 21 -160 47 -176 10 -6 10 -4 2 7 -20 26 -37 93
-45 179 l-8 85 4 -95z"/>
<path d="M5698 6033 c7 -3 16 -2 19 1 4 3 -2 6 -13 5 -11 0 -14 -3 -6 -6z"/>
<path d="M860 6014 l-25 -15 25 7 c14 3 29 10 35 15 15 14 -7 10 -35 -7z"/>
<path d="M2874 5950 c3 -64 9 -97 25 -128 29 -57 35 -53 9 5 -12 26 -25 84
-29 128 l-8 80 3 -85z"/>
<path d="M5750 6015 c33 -19 49 -19 24 0 -10 8 -26 14 -34 14 -9 0 -4 -6 10
-14z"/>
<path d="M5800 5985 c0 -2 10 -10 23 -16 20 -11 21 -11 8 4 -13 16 -31 23 -31
12z"/>
<path d="M459 5962 c6 -12 16 -24 22 -28 8 -4 8 -1 0 14 -6 12 -16 24 -22 28
-8 4 -8 1 0 -14z"/>
<path d="M3870 5947 c0 -14 5 -29 10 -32 7 -4 8 3 4 22 -9 38 -14 42 -14 10z"/>
<path d="M2901 5925 c-1 -25 19 -98 25 -92 2 2 -2 28 -10 58 -8 30 -15 45 -15
34z"/>
<path d="M6104 5888 l-29 -33 33 29 c30 28 37 36 29 36 -2 0 -16 -15 -33 -32z"/>
<path d="M1080 5875 c-12 -19 -38 -48 -58 -65 -20 -16 -32 -30 -26 -30 13 0
88 78 103 108 18 34 5 26 -19 -13z"/>
<path d="M3761 5902 c-2 -28 32 -87 74 -129 47 -48 110 -74 174 -72 l36 1 -35
8 c-19 4 -52 11 -74 15 -51 9 -139 91 -160 148 -8 23 -15 36 -15 29z"/>
<path d="M525 5880 c21 -24 26 -25 19 -6 -3 8 -13 17 -22 21 -13 5 -13 2 3
-15z"/>
<path d="M5550 5863 c0 -14 89 -93 104 -93 6 0 -2 11 -19 23 -16 12 -42 35
-57 52 -16 16 -28 24 -28 18z"/>
<path d="M3390 5839 c-22 -18 -22 -19 -3 -10 12 6 25 16 28 21 9 15 3 12 -25
-11z"/>
<path d="M570 5836 c0 -2 7 -7 16 -10 8 -3 12 -2 9 4 -6 10 -25 14 -25 6z"/>
<path d="M3198 5833 c23 -2 59 -2 80 0 20 2 1 4 -43 4 -44 0 -61 -2 -37 -4z"/>
<path d="M4018 5833 c18 -2 45 -2 60 0 15 2 0 4 -33 4 -33 0 -45 -2 -27 -4z"/>
<path d="M6022 5810 c-23 -22 -27 -55 -12 -100 6 -17 7 -10 3 23 -5 41 -2 52
18 73 27 29 21 32 -9 4z"/>
<path d="M3101 5809 c13 -8 88 -14 78 -5 -2 2 -24 6 -48 9 -29 4 -40 2 -30 -4z"/>
<path d="M3955 5810 c11 -5 29 -8 40 -8 16 0 15 2 -5 8 -34 11 -60 11 -35 0z"/>
<path d="M2960 5801 c0 -10 19 -25 25 -20 1 2 -3 10 -11 17 -8 7 -14 8 -14 3z"/>
<path d="M3238 5803 c17 -2 47 -2 65 0 17 2 3 4 -33 4 -36 0 -50 -2 -32 -4z"/>
<path d="M187 5735 c-4 -36 -3 -74 1 -85 4 -11 8 17 10 66 1 46 1 84 -1 84 -2
0 -7 -29 -10 -65z"/>
<path d="M3428 5755 c-38 -26 -62 -35 -115 -41 -85 -9 -211 1 -260 21 -33 13
-36 13 -18 0 32 -25 85 -35 191 -35 120 0 189 18 229 60 36 37 32 37 -27 -5z"/>
<path d="M3491 5758 c-41 -51 -100 -70 -233 -76 -65 -3 -118 -9 -118 -13 0
-11 11 -11 145 1 126 12 180 33 220 86 32 42 19 45 -14 2z"/>
<path d="M2954 5749 c17 -28 92 -69 122 -68 10 0 -3 9 -31 20 -27 11 -63 32
-79 47 l-29 27 17 -26z"/>
<path d="M4057 5751 c-4 -17 -3 -21 5 -13 5 5 8 16 6 23 -3 8 -7 3 -11 -10z"/>
<path d="M280 5756 c0 -3 9 -10 20 -16 11 -6 20 -8 20 -6 0 3 -9 10 -20 16
-11 6 -20 8 -20 6z"/>
<path d="M6255 5705 c-33 -25 -69 -57 -80 -73 -12 -18 -2 -12 30 18 28 25 67
56 88 69 20 12 37 25 37 27 0 11 -20 0 -75 -41z"/>
<path d="M350 5713 c14 -9 39 -28 56 -42 16 -14 10 -7 -14 17 -24 23 -49 42
-55 42 -6 0 0 -7 13 -17z"/>
<path d="M3830 5725 c0 -10 80 -45 102 -45 15 1 8 6 -22 16 -25 9 -49 20 -54
25 -11 10 -26 12 -26 4z"/>
<path d="M808 5713 c7 -3 16 -2 19 1 4 3 -2 6 -13 5 -11 0 -14 -3 -6 -6z"/>
<path d="M2567 5708 c2 -5 17 -8 34 -8 16 0 29 3 29 8 0 4 -15 7 -34 7 -19 0
-32 -3 -29 -7z"/>
<path d="M5798 5713 c7 -3 16 -2 19 1 4 3 -2 6 -13 5 -11 0 -14 -3 -6 -6z"/>
<path d="M5976 5670 c13 -66 23 -87 17 -35 -3 28 -9 54 -14 60 -6 5 -7 -5 -3
-25z"/>
<path d="M2520 5668 c0 -5 37 -8 82 -8 45 0 79 3 75 6 -9 9 -157 11 -157 2z"/>
<path d="M3978 5673 c12 -2 30 -2 40 0 9 3 -1 5 -23 4 -22 0 -30 -2 -17 -4z"/>
<path d="M4060 5670 c-12 -8 -9 -10 13 -10 15 0 27 5 27 10 0 13 -20 13 -40 0z"/>
<path d="M6022 5660 c0 -14 2 -19 5 -12 2 6 2 18 0 25 -3 6 -5 1 -5 -13z"/>
<path d="M469 5600 c10 -19 24 -52 31 -73 7 -21 14 -36 17 -34 9 10 -20 85
-43 113 l-24 29 19 -35z"/>
<path d="M582 5590 c0 -19 2 -27 5 -17 2 9 2 25 0 35 -3 9 -5 1 -5 -18z"/>
<path d="M6411 5580 c-1 -14 -12 -51 -25 -82 -30 -74 -23 -76 10 -3 15 32 24
66 21 82 -4 27 -4 27 -6 3z"/>
<path d="M5587 5543 c3 -21 10 -45 15 -53 7 -11 8 -8 4 10 -3 14 -6 37 -6 53
0 15 -4 27 -9 27 -6 0 -7 -17 -4 -37z"/>
<path d="M612 5545 c0 -16 2 -22 5 -12 2 9 2 23 0 30 -3 6 -5 -1 -5 -18z"/>
<path d="M5741 5556 c7 -7 113 -46 116 -42 4 4 -96 46 -110 46 -6 0 -8 -2 -6
-4z"/>
<path d="M780 5520 c-46 -25 -27 -25 25 0 22 11 33 19 25 19 -8 0 -31 -8 -50
-19z"/>
<path d="M2715 5529 c182 -4 348 -10 370 -13 22 -3 11 1 -25 9 -49 11 -141 14
-370 12 l-305 -1 330 -7z"/>
<path d="M4203 5533 c-7 -2 -13 -9 -13 -14 0 -6 6 -7 13 -2 6 4 98 10 202 13
l190 6 -190 1 c-104 1 -196 -1 -202 -4z"/>
<path d="M2315 5520 c-27 -7 -27 -8 -5 -8 14 0 36 4 50 8 20 6 21 8 5 8 -11 0
-33 -4 -50 -8z"/>
<path d="M603 5450 c0 -36 2 -50 4 -32 2 17 2 47 0 65 -2 17 -4 3 -4 -33z"/>
<path d="M257 5463 c10 -28 45 -75 51 -69 4 5 -46 86 -54 86 -2 0 -1 -8 3 -17z"/>
<path d="M695 5460 c-3 -5 -2 -10 4 -10 5 0 13 5 16 10 3 6 2 10 -4 10 -5 0
-13 -4 -16 -10z"/>
<path d="M3225 5460 c3 -5 11 -10 16 -10 6 0 7 5 4 10 -3 6 -11 10 -16 10 -6
0 -7 -4 -4 -10z"/>
<path d="M975 5385 c-17 -35 -25 -59 -19 -54 13 10 58 109 52 114 -2 2 -17
-25 -33 -60z"/>
<path d="M2109 5434 c-15 -8 -33 -22 -40 -31 -12 -16 -10 -15 16 1 72 46 86
63 24 30z"/>
<path d="M3280 5430 c14 -11 34 -26 45 -32 18 -10 19 -10 6 6 -8 10 -28 24
-45 32 l-31 15 25 -21z"/>
<path d="M2448 5413 c6 -2 18 -2 25 0 6 3 1 5 -13 5 -14 0 -19 -2 -12 -5z"/>
<path d="M2343 5403 c9 -2 23 -2 30 0 6 3 -1 5 -18 5 -16 0 -22 -2 -12 -5z"/>
<path d="M3028 5403 c7 -3 16 -2 19 1 4 3 -2 6 -13 5 -11 0 -14 -3 -6 -6z"/>
<path d="M6282 5360 c-29 -28 -50 -50 -45 -50 5 0 31 23 58 50 63 64 56 64
-13 0z"/>
<path d="M3078 5393 c7 -3 16 -2 19 1 4 3 -2 6 -13 5 -11 0 -14 -3 -6 -6z"/>
<path d="M350 5347 c19 -21 51 -47 70 -58 l35 -19 -25 20 c-14 12 -34 28 -45
37 -11 9 -31 25 -45 37 -14 11 -9 4 10 -17z"/>
<path d="M3385 5338 c22 -24 42 -43 44 -42 6 5 -42 61 -64 74 -11 7 -2 -7 20
-32z"/>
<path d="M2001 5335 c-29 -33 -36 -45 -28 -45 2 0 18 18 36 40 40 49 34 53 -8
5z"/>
<path d="M4512 4721 c-2 -650 -2 -654 19 -688 12 -19 23 -32 26 -29 3 2 -4 17
-14 32 -17 26 -18 70 -23 684 l-5 655 -3 -654z"/>
<path d="M5670 5342 c0 -5 10 -17 21 -28 22 -19 22 -19 10 3 -12 24 -31 39
-31 25z"/>
<path d="M2104 5285 c-34 -28 -82 -85 -72 -85 2 0 29 27 62 60 32 33 57 60 55
60 -2 0 -23 -16 -45 -35z"/>
<path d="M3288 5282 c23 -20 56 -57 72 -82 35 -53 41 -46 6 8 -23 37 -100 112
-114 112 -4 0 12 -17 36 -38z"/>
<path d="M916 5293 c-6 -14 -5 -15 5 -6 7 7 10 15 7 18 -3 3 -9 -2 -12 -12z"/>
<path d="M4166 5268 c-15 -29 -22 -57 -11 -47 7 8 36 79 31 79 -3 0 -12 -14
-20 -32z"/>
<path d="M6189 5279 l-24 -20 28 17 c15 9 27 18 27 20 0 8 -8 4 -31 -17z"/>
<path d="M4327 5263 c-4 -3 -7 -11 -7 -17 0 -6 5 -5 12 2 6 6 9 14 7 17 -3 3
-9 2 -12 -2z"/>
<path d="M1930 5241 c-15 -30 -32 -77 -24 -68 9 9 44 87 39 87 -2 0 -9 -9 -15
-19z"/>
<path d="M2392 5248 c-30 -5 -52 -12 -49 -14 2 -2 42 2 88 10 46 8 68 14 49
14 -19 0 -59 -5 -88 -10z"/>
<path d="M2533 5253 c9 -2 23 -2 30 0 6 3 -1 5 -18 5 -16 0 -22 -2 -12 -5z"/>
<path d="M2880 5255 c14 -3 57 -10 95 -16 39 -7 88 -18 110 -25 35 -12 38 -12
21 0 -23 19 -102 36 -186 41 -36 2 -54 2 -40 0z"/>
<path d="M4358 4868 c1 -216 3 -490 5 -608 1 -118 3 58 5 393 1 334 -1 607 -5
607 -5 0 -7 -177 -5 -392z"/>
<path d="M3460 5245 c1 -6 10 -26 21 -45 15 -26 18 -29 13 -10 -7 27 -34 71
-34 55z"/>
<path d="M4031 5223 c-10 -26 -10 -27 4 -9 8 11 15 23 15 28 0 15 -7 8 -19
-19z"/>
<path d="M5775 5240 c7 -11 65 -43 65 -36 0 2 -16 13 -36 25 -19 12 -32 16
-29 11z"/>
<path d="M810 5220 c-19 -11 -31 -19 -27 -20 11 0 67 29 67 35 0 7 -1 7 -40
-15z"/>
<path d="M533 5150 c0 -36 2 -50 4 -32 2 17 2 47 0 65 -2 17 -4 3 -4 -33z"/>
<path d="M2196 5150 c-20 -22 -36 -43 -36 -47 0 -4 3 -3 8 3 4 5 23 26 41 47
19 20 32 37 29 37 -3 0 -22 -18 -42 -40z"/>
<path d="M3161 5178 c2 -2 22 -19 44 -38 l40 -35 -34 38 c-19 20 -39 37 -45
37 -5 0 -7 -1 -5 -2z"/>
<path d="M6090 5051 c0 -81 4 -132 11 -136 7 -5 10 35 8 129 -1 75 -6 136 -10
136 -5 0 -9 -58 -9 -129z"/>
<path d="M100 5146 c0 -2 9 -6 20 -9 11 -3 18 -1 14 4 -5 9 -34 13 -34 5z"/>
<path d="M4250 5129 c-7 -11 -10 -23 -7 -25 2 -2 9 7 15 21 14 30 7 33 -8 4z"/>
<path d="M6506 5143 c5 -5 12 -12 16 -18 4 -6 8 -2 8 8 0 9 -7 17 -17 17 -9 0
-12 -3 -7 -7z"/>
<path d="M170 5130 c34 -11 60 -11 35 0 -11 5 -29 8 -40 8 -16 0 -15 -2 5 -8z"/>
<path d="M6458 5133 c7 -3 16 -2 19 1 4 3 -2 6 -13 5 -11 0 -14 -3 -6 -6z"/>
<path d="M2398 5123 c7 -3 16 -2 19 1 4 3 -2 6 -13 5 -11 0 -14 -3 -6 -6z"/>
<path d="M2985 5121 c11 -5 36 -11 55 -15 l35 -6 -30 15 c-16 8 -41 14 -55 14
-23 0 -23 -1 -5 -8z"/>
<path d="M574 4955 c0 -88 2 -123 3 -77 2 46 2 118 0 160 -1 42 -3 5 -3 -83z"/>
<path d="M985 5083 c-1 -16 -4 -53 -7 -83 l-7 -55 14 50 c15 56 19 115 8 115
-5 0 -8 -12 -8 -27z"/>
<path d="M3951 5083 c-10 -26 -10 -27 4 -9 8 11 15 23 15 28 0 15 -7 8 -19
-19z"/>
<path d="M6058 5098 c-2 -7 -1 -29 3 -48 6 -34 6 -33 8 13 1 46 -3 59 -11 35z"/>
<path d="M4055 5059 c-9 -17 -15 -33 -13 -35 3 -2 12 12 21 31 21 43 13 47 -8
4z"/>
<path d="M324 5068 c10 -7 39 -28 65 -47 35 -26 41 -28 23 -10 -12 14 -41 35
-65 48 -23 12 -34 16 -23 9z"/>
<path d="M1956 5044 c-4 -20 -5 -38 -3 -40 3 -3 8 11 11 32 4 20 5 38 3 40 -3
3 -8 -11 -11 -32z"/>
<path d="M5780 5057 c8 -7 28 -19 44 -26 26 -11 28 -10 17 3 -7 8 -27 19 -44
26 -27 9 -30 9 -17 -3z"/>
<path d="M6505 5044 c-6 -29 -35 -120 -49 -159 -5 -11 1 -6 11 10 20 31 58
164 49 172 -3 3 -8 -8 -11 -23z"/>
<path d="M797 5039 c-22 -11 -37 -22 -34 -25 2 -2 24 7 48 21 52 30 41 33 -14
4z"/>
<path d="M6214 5005 c-52 -54 -65 -75 -44 -75 6 0 10 6 10 13 0 14 66 86 95
104 12 7 15 12 7 12 -8 1 -38 -24 -68 -54z"/>
<path d="M2117 5043 c-4 -3 -7 -16 -6 -27 0 -19 1 -19 10 3 10 24 8 36 -4 24z"/>
<path d="M2243 5038 c-15 -20 -25 -38 -20 -38 3 0 12 11 21 25 17 26 16 35 -1
13z"/>
<path d="M3441 5024 c0 -11 3 -14 6 -6 3 7 2 16 -1 19 -3 4 -6 -2 -5 -13z"/>
<path d="M3176 4997 c3 -10 9 -15 12 -12 3 3 0 11 -7 18 -10 9 -11 8 -5 -6z"/>
<path d="M3291 5000 c0 -8 6 -46 14 -85 l14 -70 -6 65 c-5 59 -22 127 -22 90z"/>
<path d="M703 4968 c-36 -39 -63 -79 -63 -92 0 -6 7 1 16 14 10 14 35 44 58
68 22 23 36 42 30 42 -6 0 -24 -15 -41 -32z"/>
<path d="M3452 4970 c0 -19 2 -27 5 -17 2 9 2 25 0 35 -3 9 -5 1 -5 -18z"/>
<path d="M5895 4980 c10 -11 20 -18 23 -15 7 6 -18 35 -31 35 -5 0 -2 -9 8
-20z"/>
<path d="M1939 4968 c-3 -120 -1 -630 3 -634 4 -3 6 143 6 325 0 182 -2 331
-4 331 -2 0 -4 -10 -5 -22z"/>
<path d="M430 4976 c0 -2 8 -10 18 -17 15 -13 16 -12 3 4 -13 16 -21 21 -21
13z"/>
<path d="M3985 4933 c-10 -21 -20 -41 -22 -45 -2 -5 -2 -8 1 -8 8 0 48 81 43
86 -2 3 -12 -12 -22 -33z"/>
<path d="M4150 4950 c-6 -11 -8 -20 -6 -20 3 0 10 9 16 20 6 11 8 20 6 20 -3
0 -10 -9 -16 -20z"/>
<path d="M5936 4945 c4 -8 11 -15 16 -15 6 0 5 6 -2 15 -7 8 -14 15 -16 15 -2
0 -1 -7 2 -15z"/>
<path d="M150 4934 c0 -6 7 -19 16 -30 14 -18 14 -18 3 6 -14 31 -19 36 -19
24z"/>
<path d="M961 4928 c0 -9 -4 -25 -7 -35 -5 -17 -5 -17 6 0 6 10 9 25 7 35 -4
15 -5 15 -6 0z"/>
<path d="M3856 4915 c-9 -26 -7 -32 5 -12 6 10 9 21 6 23 -2 3 -7 -2 -11 -11z"/>
<path d="M3462 4499 c-2 -361 0 -428 13 -445 8 -10 15 -14 15 -9 0 6 -4 15
-10 21 -6 6 -11 172 -13 434 l-2 425 -3 -426z"/>
<path d="M5980 4885 c0 -5 5 -17 10 -25 5 -8 10 -10 10 -5 0 6 -5 17 -10 25
-5 8 -10 11 -10 5z"/>
<path d="M3565 4435 c0 -247 1 -347 2 -222 2 126 2 328 0 450 -1 122 -2 20 -2
-228z"/>
<path d="M190 4854 c0 -6 21 -30 47 -54 l47 -45 -44 50 c-24 28 -45 52 -47 54
-2 2 -3 0 -3 -5z"/>
<path d="M3826 4843 c-6 -14 -5 -15 5 -6 7 7 10 15 7 18 -3 3 -9 -2 -12 -12z"/>
<path d="M6416 4832 l-19 -27 24 22 c12 12 21 24 18 27 -2 2 -13 -8 -23 -22z"/>
<path d="M4262 4830 c0 -14 2 -19 5 -12 2 6 2 18 0 25 -3 6 -5 1 -5 -13z"/>
<path d="M6001 4824 c0 -11 3 -14 6 -6 3 7 2 16 -1 19 -3 4 -6 -2 -5 -13z"/>
<path d="M4186 4803 c-6 -14 -5 -15 5 -6 7 7 10 15 7 18 -3 3 -9 -2 -12 -12z"/>
<path d="M4262 4775 c0 -16 2 -22 5 -12 2 9 2 23 0 30 -3 6 -5 -1 -5 -18z"/>
<path d="M879 4762 c-8 -10 -19 -24 -24 -32 -8 -13 -7 -13 9 -1 16 13 41 51
34 51 -2 0 -10 -8 -19 -18z"/>
<path d="M4161 4761 c-11 -19 -22 -21 -184 -24 l-172 -3 177 -2 c171 -2 178
-1 188 19 7 11 9 23 7 26 -3 2 -10 -5 -16 -16z"/>
<path d="M5762 4741 c13 -16 30 -32 38 -36 8 -3 -1 10 -19 29 -42 44 -51 46
-19 7z"/>
<path d="M305 4742 c17 -17 85 -52 85 -44 0 5 -17 17 -37 27 -53 27 -60 30
-48 17z"/>
<path d="M4264 4415 c0 -176 2 -247 3 -157 2 90 2 234 0 320 -1 86 -3 13 -3
-163z"/>
<path d="M2172 4680 c0 -19 2 -27 5 -17 2 9 2 25 0 35 -3 9 -5 1 -5 -18z"/>
<path d="M5861 4651 c32 -24 85 -51 101 -51 11 0 -109 70 -120 70 -3 0 6 -8
19 -19z"/>
<path d="M715 4630 c-39 -26 -25 -26 17 0 18 11 29 20 23 20 -5 0 -23 -9 -40
-20z"/>
<path d="M6086 4515 c-4 -49 -10 -103 -13 -120 -3 -16 -3 -27 1 -24 10 10 33
194 26 215 -4 10 -10 -20 -14 -71z"/>
<path d="M862 4569 c-18 -12 -31 -24 -28 -26 5 -5 66 35 66 43 0 6 -3 5 -38
-17z"/>
<path d="M5750 4575 c14 -10 40 -32 58 -48 17 -17 32 -27 32 -21 -1 10 -83 77
-103 83 -6 1 -1 -5 13 -14z"/>
<path d="M542 4520 c0 -14 2 -19 5 -12 2 6 2 18 0 25 -3 6 -5 1 -5 -13z"/>
<path d="M590 4525 c-3 -12 -1 -36 10 -125 l7 -65 1 60 c1 55 -13 153 -18 130z"/>
<path d="M552 4445 c0 -27 4 -63 8 -80 6 -26 8 -23 8 20 0 28 -4 64 -8 80 -6
26 -8 23 -8 -20z"/>
<path d="M758 4473 c-8 -10 -19 -25 -23 -33 -8 -13 -7 -13 9 -1 16 14 41 51
33 51 -2 0 -11 -8 -19 -17z"/>
<path d="M5850 4486 c0 -2 8 -10 18 -17 15 -13 16 -12 3 4 -13 16 -21 21 -21
13z"/>
<path d="M325 4470 c73 -20 82 -21 50 -6 -16 9 -41 15 -55 15 -23 -1 -23 -2 5
-9z"/>
<path d="M6265 4468 c-32 -11 -75 -38 -62 -38 5 0 21 7 37 15 16 8 46 19 67
24 27 6 30 9 13 9 -14 0 -38 -4 -55 -10z"/>
<path d="M2091 4454 c0 -11 3 -14 6 -6 3 7 2 16 -1 19 -3 4 -6 -2 -5 -13z"/>
<path d="M6492 4413 c-11 -32 -23 -67 -27 -78 -3 -11 1 -7 10 8 18 31 47 119
41 125 -2 2 -13 -23 -24 -55z"/>
<path d="M5909 4395 c8 -24 17 -42 19 -40 6 5 -18 74 -27 80 -5 2 -1 -15 8
-40z"/>
<path d="M2102 4410 c0 -14 2 -19 5 -12 2 6 2 18 0 25 -3 6 -5 1 -5 -13z"/>
<path d="M471 4394 c13 -17 26 -30 28 -27 3 2 -8 16 -24 31 l-28 27 24 -31z"/>
<path d="M977 4362 c-10 -31 -21 -63 -24 -71 -3 -8 -1 -11 4 -8 12 8 46 112
41 127 -1 5 -11 -16 -21 -48z"/>
<path d="M151 4365 c0 -18 28 -61 29 -44 0 8 -7 24 -15 35 -8 10 -14 15 -14 9z"/>
<path d="M2111 4354 c0 -11 3 -14 6 -6 3 7 2 16 -1 19 -3 4 -6 -2 -5 -13z"/>
<path d="M2220 4337 c0 -14 24 -57 32 -57 5 0 1 12 -9 28 -22 35 -23 36 -23
29z"/>
<path d="M1951 4304 c0 -11 3 -14 6 -6 3 7 2 16 -1 19 -3 4 -6 -2 -5 -13z"/>
<path d="M5670 4298 c0 -9 9 -26 20 -39 l21 -24 -17 35 c-21 43 -24 47 -24 28z"/>
<path d="M190 4282 c6 -13 14 -21 18 -18 3 4 -2 14 -12 24 -18 16 -18 16 -6
-6z"/>
<path d="M2260 4265 c0 -2 10 -10 23 -16 20 -11 21 -11 8 4 -13 16 -31 23 -31
12z"/>
<path d="M6380 4217 l-33 -42 39 37 c21 21 36 40 33 43 -3 3 -21 -14 -39 -38z"/>
<path d="M230 4232 c0 -5 7 -15 15 -22 8 -7 15 -8 15 -2 0 5 -7 15 -15 22 -8
7 -15 8 -15 2z"/>
<path d="M2178 4205 c20 -39 106 -105 119 -92 2 3 -6 11 -19 17 -12 7 -43 31
-67 54 -24 22 -39 32 -33 21z"/>
<path d="M869 4173 l-34 -38 38 34 c34 33 42 41 34 41 -2 0 -19 -17 -38 -37z"/>
<path d="M1044 4174 l-29 -25 35 17 c43 20 43 21 33 27 -5 3 -22 -5 -39 -19z"/>
<path d="M2398 4193 c6 -2 18 -2 25 0 6 3 1 5 -13 5 -14 0 -19 -2 -12 -5z"/>
<path d="M5740 4193 c1 -13 70 -89 70 -76 0 6 -16 28 -35 47 -19 20 -35 33
-35 29z"/>
<path d="M1894 4180 c9 -32 39 -101 43 -97 2 3 -8 29 -22 58 -14 30 -23 47
-21 39z"/>
<path d="M2443 4184 c5 -5 151 -11 325 -14 l317 -5 5 -195 6 -195 2 203 2 202
-284 0 c-156 0 -305 3 -332 6 -29 4 -46 3 -41 -2z"/>
<path d="M5540 4180 c-11 -8 -9 -9 10 -5 19 5 32 0 50 -19 13 -15 28 -26 34
-26 14 1 -55 59 -69 60 -5 0 -17 -5 -25 -10z"/>
<path d="M290 4175 c0 -7 121 -65 134 -65 6 0 3 5 -7 11 -32 19 -127 59 -127
54z"/>
<path d="M6280 4150 c-19 -11 -31 -19 -27 -20 11 0 67 29 67 35 0 7 -1 7 -40
-15z"/>
<path d="M2020 4142 c0 -7 15 -27 33 -45 17 -18 25 -24 16 -13 -9 12 -23 32
-32 46 -10 13 -17 19 -17 12z"/>
<path d="M765 4079 c-59 -45 -67 -57 -13 -20 26 17 50 36 53 41 9 15 3 12 -40
-21z"/>
<path d="M945 4079 c-4 -6 -5 -12 -2 -15 2 -3 7 2 10 11 7 17 1 20 -8 4z"/>
<path d="M5680 4086 c0 -7 45 -72 63 -91 6 -5 -1 9 -14 33 -22 41 -49 72 -49
58z"/>
<path d="M5847 4079 c6 -8 26 -23 45 -33 29 -17 31 -18 19 -2 -8 9 -28 24 -45
33 -24 12 -28 13 -19 2z"/>
<path d="M1945 4060 c3 -5 8 -10 11 -10 2 0 4 5 4 10 0 6 -5 10 -11 10 -5 0
-7 -4 -4 -10z"/>
<path d="M2530 4058 c50 -7 466 -11 459 -4 -3 3 -117 6 -254 8 -138 2 -230 0
-205 -4z"/>
<path d="M6006 4045 c-3 -9 -6 -24 -5 -33 0 -9 5 -4 10 12 9 32 6 48 -5 21z"/>
<path d="M2993 3990 c0 -30 2 -43 4 -27 2 15 2 39 0 55 -2 15 -4 2 -4 -28z"/>
<path d="M4371 4024 c0 -11 3 -14 6 -6 3 7 2 16 -1 19 -3 4 -6 -2 -5 -13z"/>
<path d="M5513 3990 c0 -30 2 -43 4 -27 2 15 2 39 0 55 -2 15 -4 2 -4 -28z"/>
<path d="M1989 4003 c9 -19 41 -48 76 -73 11 -8 -2 9 -30 38 -53 56 -61 62
-46 35z"/>
<path d="M2150 4006 c0 -7 71 -49 75 -44 3 2 -13 15 -35 27 -22 12 -40 20 -40
17z"/>
<path d="M687 3975 c3 -16 10 -39 14 -50 l8 -20 0 20 c0 11 -6 34 -14 50 l-14
30 6 -30z"/>
<path d="M851 3941 c-11 -27 -21 -56 -21 -63 0 -7 11 14 25 46 13 33 23 61 21
63 -2 2 -13 -19 -25 -46z"/>
<path d="M5986 3954 c-4 -20 -5 -38 -3 -40 3 -3 8 11 11 32 4 20 5 38 3 40 -3
3 -8 -11 -11 -32z"/>
<path d="M641 3965 c0 -11 6 -42 13 -70 8 -27 15 -41 15 -30 0 11 -6 43 -13
70 -8 28 -15 41 -15 30z"/>
<path d="M3386 3945 c34 -45 41 -45 12 0 -13 19 -27 35 -31 35 -4 0 4 -16 19
-35z"/>
<path d="M3540 3971 c0 -5 7 -11 15 -15 9 -3 15 0 15 9 0 8 -7 15 -15 15 -8 0
-15 -4 -15 -9z"/>
<path d="M4580 3970 c0 -5 7 -10 15 -10 8 0 15 5 15 10 0 6 -7 10 -15 10 -8 0
-15 -4 -15 -10z"/>
<path d="M4459 3903 c12 -18 24 -33 27 -33 9 0 -15 37 -33 51 -12 10 -11 5 6
-18z"/>
<path d="M4320 3914 c0 -5 12 -22 26 -39 l26 -30 -23 35 c-29 45 -29 45 -29
34z"/>
<path d="M5797 3860 c8 -77 22 -108 16 -35 -3 33 -9 67 -14 75 -5 8 -6 -9 -2
-40z"/>
<path d="M325 3890 c-19 -8 -19 -9 2 -9 12 -1 25 4 28 9 7 12 -2 12 -30 0z"/>
<path d="M400 3897 c8 -8 133 -37 138 -32 2 2 -13 8 -34 14 -64 16 -109 24
-104 18z"/>
<path d="M6190 3890 c-13 -8 -13 -10 2 -10 9 0 20 5 23 10 8 13 -5 13 -25 0z"/>
<path d="M6280 3890 c14 -4 32 -8 40 -9 13 -1 13 0 0 9 -8 5 -26 9 -40 9 l-25
-1 25 -8z"/>
<path d="M214 3865 c-10 -8 -14 -15 -8 -15 5 0 14 4 20 9 5 5 18 11 29 14 20
5 19 5 -1 6 -11 0 -29 -6 -40 -14z"/>
<path d="M2140 3874 c0 -9 83 -45 98 -42 9 2 -9 13 -40 24 -32 12 -58 20 -58
18z"/>
<path d="M6128 3873 c6 -2 18 -2 25 0 6 3 1 5 -13 5 -14 0 -19 -2 -12 -5z"/>
<path d="M6378 3869 c17 -5 32 -16 32 -23 0 -55 -138 -230 -202 -257 -16 -6
-27 -14 -24 -16 9 -9 63 28 116 79 61 59 123 166 118 201 -2 17 -10 22 -38 24
l-35 2 33 -10z"/>
<path d="M1090 3869 c0 -2 -11 -35 -24 -72 -12 -37 -19 -64 -15 -60 12 12 50
125 44 131 -3 3 -5 3 -5 1z"/>
<path d="M595 3820 c10 -11 20 -20 23 -20 3 0 -3 9 -13 20 -10 11 -20 20 -23
20 -3 0 3 -9 13 -20z"/>
<path d="M3491 3806 c12 -20 23 -36 25 -36 7 0 -25 58 -36 65 -5 3 -1 -10 11
-29z"/>
<path d="M4546 3783 c14 -29 28 -53 30 -53 8 0 -18 57 -37 80 -15 19 -14 13 7
-27z"/>
<path d="M5875 3800 c-4 -17 -5 -34 -2 -36 2 -3 7 10 11 27 8 42 0 50 -9 9z"/>
<path d="M3359 3805 c14 -27 51 -69 55 -64 2 2 -12 22 -31 44 -19 22 -30 31
-24 20z"/>
<path d="M4411 3790 c29 -46 29 -45 29 -32 0 6 -12 24 -26 39 l-26 28 23 -35z"/>
<path d="M250 3764 c0 -11 48 -84 55 -84 3 0 -7 19 -21 43 -32 50 -34 53 -34
41z"/>
<path d="M5390 3755 c-7 -9 -10 -18 -7 -21 3 -3 10 4 17 15 13 25 8 27 -10 6z"/>
<path d="M5582 3730 c9 -27 28 -50 28 -35 0 9 -30 65 -35 65 -2 0 1 -14 7 -30z"/>
<path d="M4262 3303 l3 -448 2 433 c2 237 6 432 10 432 4 0 18 -10 32 -22 14
-13 10 -6 -8 15 -19 20 -36 37 -38 37 -2 0 -2 -201 -1 -447z"/>
<path d="M5430 3732 c6 -13 14 -21 18 -18 3 4 -2 14 -12 24 -18 16 -18 16 -6
-6z"/>
<path d="M1141 3679 c-13 -17 -22 -32 -19 -34 2 -2 16 11 31 30 15 19 24 35
20 34 -4 0 -19 -14 -32 -30z"/>
<path d="M1262 3680 c0 -14 2 -19 5 -12 2 6 2 18 0 25 -3 6 -5 1 -5 -13z"/>
<path d="M3270 3692 c0 -5 10 -17 22 -28 l21 -19 -18 28 c-18 28 -25 33 -25
19z"/>
<path d="M3440 3691 c0 -5 5 -13 10 -16 6 -3 10 -2 10 4 0 5 -4 13 -10 16 -5
3 -10 2 -10 -4z"/>
<path d="M990 3650 c-6 -11 -8 -20 -6 -20 3 0 10 9 16 20 6 11 8 20 6 20 -3 0
-10 -9 -16 -20z"/>
<path d="M4340 3663 c0 -7 5 -15 10 -18 6 -4 11 -129 12 -333 l3 -327 2 323
c3 276 1 326 -12 345 -8 12 -15 16 -15 10z"/>
<path d="M3462 3565 c-1 -55 -4 -118 -7 -140 -5 -40 -5 -40 5 -7 6 18 9 81 7
140 l-3 107 -2 -100z"/>
<path d="M5502 3640 c7 -10 14 -18 15 -16 6 6 -9 36 -18 36 -5 0 -4 -9 3 -20z"/>
<path d="M1272 3635 c0 -11 4 -33 8 -50 7 -27 8 -27 8 -5 0 14 -4 36 -8 50 -6
20 -8 21 -8 5z"/>
<path d="M3564 3555 c0 -49 1 -71 3 -48 2 23 2 64 0 90 -2 26 -3 8 -3 -42z"/>
<path d="M4514 3330 c0 -173 2 -244 3 -157 2 86 2 228 0 315 -1 86 -3 15 -3
-158z"/>
<path d="M911 3554 c-28 -30 -51 -60 -51 -66 0 -5 12 5 27 24 15 18 33 36 39
40 12 8 47 58 40 58 -2 0 -27 -25 -55 -56z"/>
<path d="M5679 3586 c14 -14 27 -26 29 -26 10 0 -26 44 -39 48 -8 3 -3 -7 10
-22z"/>
<path d="M425 3582 c11 -11 135 -46 141 -39 2 2 -22 11 -53 20 -32 9 -67 19
-78 23 -14 5 -17 4 -10 -4z"/>
<path d="M6120 3560 c-20 -6 -21 -8 -5 -8 11 0 29 3 40 8 25 11 -1 11 -35 0z"/>
<path d="M613 3533 c20 -2 54 -2 75 0 20 2 3 4 -38 4 -41 0 -58 -2 -37 -4z"/>
<path d="M1292 3485 c-1 -33 -5 -71 -7 -85 l-6 -25 11 25 c6 13 9 51 7 85 l-3
60 -2 -60z"/>
<path d="M1046 3503 c-6 -14 -5 -15 5 -6 7 7 10 15 7 18 -3 3 -9 -2 -12 -12z"/>
<path d="M1932 3475 c0 -11 4 -33 8 -50 l8 -30 0 30 c0 17 -3 39 -8 50 l-9 20
1 -20z"/>
<path d="M1032 3460 c0 -14 2 -19 5 -12 2 6 2 18 0 25 -3 6 -5 1 -5 -13z"/>
<path d="M3292 3398 c-12 -44 -21 -83 -19 -85 7 -6 49 136 45 152 -2 8 -13
-22 -26 -67z"/>
<path d="M887 3435 c9 -19 18 -33 21 -31 4 5 -26 66 -33 66 -3 0 3 -16 12 -35z"/>
<path d="M5801 3429 c-6 -18 -9 -34 -7 -36 2 -2 9 10 15 28 6 18 9 34 7 36 -2
2 -9 -10 -15 -28z"/>
<path d="M5601 3434 c0 -11 3 -14 6 -6 3 7 2 16 -1 19 -3 4 -6 -2 -5 -13z"/>
<path d="M2092 3425 c0 -5 6 -26 13 -45 7 -19 14 -28 14 -20 0 8 -6 29 -14 45
-7 17 -13 26 -13 20z"/>
<path d="M831 3415 c0 -17 47 -111 48 -95 0 8 -11 35 -24 60 -13 25 -24 41
-24 35z"/>
<path d="M2210 3395 c0 -14 35 -65 44 -65 5 0 2 8 -7 18 -10 10 -17 24 -17 30
0 6 -4 14 -10 17 -5 3 -10 3 -10 0z"/>
<path d="M3176 3383 c-6 -14 -5 -15 5 -6 7 7 10 15 7 18 -3 3 -9 -2 -12 -12z"/>
<path d="M5613 3355 c0 -27 2 -38 4 -22 2 15 2 37 0 50 -2 12 -4 0 -4 -28z"/>
<path d="M1951 3364 c0 -11 3 -14 6 -6 3 7 2 16 -1 19 -3 4 -6 -2 -5 -13z"/>
<path d="M5185 3369 c-9 -14 -2 -20 14 -10 8 6 9 11 3 15 -6 3 -14 1 -17 -5z"/>
<path d="M1425 3360 c-3 -5 -2 -10 4 -10 5 0 13 5 16 10 3 6 2 10 -4 10 -5 0
-13 -4 -16 -10z"/>
<path d="M1271 3344 c0 -11 3 -14 6 -6 3 7 2 16 -1 19 -3 4 -6 -2 -5 -13z"/>
<path d="M3160 3351 c0 -6 -22 -26 -50 -43 -59 -37 -65 -46 -12 -19 42 21 79
58 69 68 -4 3 -7 1 -7 -6z"/>
<path d="M5225 3323 c8 -18 18 -33 20 -33 10 0 4 16 -16 40 l-20 25 16 -32z"/>
<path d="M5676 3323 c-6 -14 -5 -15 5 -6 7 7 10 15 7 18 -3 3 -9 -2 -12 -12z"/>
<path d="M655 3310 c55 -4 111 -10 125 -14 20 -5 19 -3 -5 8 -21 11 -59 15
-125 14 l-95 -2 100 -6z"/>
<path d="M956 3307 c3 -10 9 -15 12 -12 3 3 0 11 -7 18 -10 9 -11 8 -5 -6z"/>
<path d="M1248 3276 c-8 -25 -12 -43 -7 -41 10 7 32 75 26 81 -2 3 -11 -16
-19 -40z"/>
<path d="M5853 3307 c-54 -20 -49 -28 8 -11 60 18 220 15 272 -5 16 -6 26 -7
22 -2 -17 28 -239 41 -302 18z"/>
<path d="M505 3300 c-13 -6 -15 -9 -5 -9 8 0 22 4 30 9 18 12 2 12 -25 0z"/>
<path d="M5375 3270 c12 -38 44 -110 49 -110 5 0 -43 122 -51 130 -3 3 -2 -6
2 -20z"/>
<path d="M3511 3258 c-5 -13 -16 -40 -25 -62 -9 -21 -16 -41 -16 -45 1 -11 31
49 45 90 15 41 11 56 -4 17z"/>
<path d="M5115 3243 c-9 -20 -14 -40 -13 -45 2 -5 11 11 20 37 20 54 15 61 -7
8z"/>
<path d="M2178 3255 c16 -31 64 -73 104 -89 57 -24 59 -18 3 10 -27 14 -65 42
-83 62 -19 20 -29 28 -24 17z"/>
<path d="M6221 3244 c0 -11 3 -14 6 -6 3 7 2 16 -1 19 -3 4 -6 -2 -5 -13z"/>
<path d="M3184 3218 l-29 -33 33 29 c17 17 32 31 32 33 0 8 -8 1 -36 -29z"/>
<path d="M1331 3182 c-29 -81 -25 -92 5 -13 14 35 23 65 21 68 -2 2 -14 -23
-26 -55z"/>
<path d="M428 3195 c15 -30 129 -145 144 -145 7 0 -8 18 -34 40 -26 22 -63 59
-83 83 -20 23 -32 33 -27 22z"/>
<path d="M1911 3182 c6 -18 15 -35 20 -38 5 -3 4 7 -3 23 -17 41 -30 53 -17
15z"/>
<path d="M2021 3204 c-1 -6 25 -38 57 -71 31 -33 39 -39 17 -14 -22 25 -48 57
-57 71 -9 14 -17 20 -17 14z"/>
<path d="M3370 3190 c-6 -11 -8 -20 -6 -20 3 0 10 9 16 20 6 11 8 20 6 20 -3
0 -10 -9 -16 -20z"/>
<path d="M6189 3184 c-7 -15 -38 -49 -68 -75 -30 -27 -50 -49 -45 -49 14 0
134 125 134 139 0 17 -5 13 -21 -15z"/>
<path d="M5092 3150 c0 -14 2 -19 5 -12 2 6 2 18 0 25 -3 6 -5 1 -5 -13z"/>
<path d="M1161 3108 l-22 -43 25 30 c22 25 34 55 23 55 -2 0 -13 -19 -26 -42z"/>
<path d="M1542 3120 c0 -19 2 -27 5 -17 2 9 2 25 0 35 -3 9 -5 1 -5 -18z"/>
<path d="M3300 3108 c-19 -16 -26 -26 -15 -20 18 9 64 53 54 52 -2 -1 -20 -15
-39 -32z"/>
<path d="M1997 3054 c26 -30 64 -67 83 -81 23 -17 10 0 -35 49 -83 89 -117
112 -48 32z"/>
<path d="M2653 3103 c32 -2 81 -2 110 0 29 2 3 3 -58 3 -60 0 -84 -1 -52 -3z"/>
<path d="M3429 3093 c-13 -16 -12 -17 4 -4 9 7 17 15 17 17 0 8 -8 3 -21 -13z"/>
<path d="M5327 3005 c6 -148 11 -163 11 -35 0 58 -3 114 -7 125 -4 11 -6 -30
-4 -90z"/>
<path d="M5481 3070 c14 -31 19 -36 19 -24 0 6 -7 19 -16 30 -14 18 -14 18 -3
-6z"/>
<path d="M1547 3018 c-2 -35 -2 -66 2 -70 3 -4 7 24 9 63 4 86 -4 91 -11 7z"/>
<path d="M3368 3024 c-21 -19 -38 -38 -38 -42 0 -3 18 12 40 33 37 36 44 45
38 45 -2 0 -20 -16 -40 -36z"/>
<path d="M2210 3021 c19 -10 46 -21 60 -25 14 -3 1 5 -29 19 -62 29 -83 33
-31 6z"/>
<path d="M5482 2989 c-12 -21 -21 -39 -18 -39 7 0 49 71 44 75 -2 2 -14 -14
-26 -36z"/>
<path d="M1030 3016 c0 -2 8 -10 18 -17 15 -13 16 -12 3 4 -13 16 -21 21 -21
13z"/>
<path d="M1690 3009 c0 -5 5 -7 10 -4 6 3 24 -9 41 -27 34 -35 30 -18 -4 20
-21 23 -47 30 -47 11z"/>
<path d="M4894 2998 c-10 -13 -12 -17 -4 -10 22 19 38 14 54 -15 18 -33 20
-27 5 16 -13 37 -29 39 -55 9z"/>
<path d="M878 3003 c7 -3 16 -2 19 1 4 3 -2 6 -13 5 -11 0 -14 -3 -6 -6z"/>
<path d="M5885 3001 c-3 -6 10 -7 32 -4 50 8 55 13 10 13 -20 0 -38 -4 -42 -9z"/>
<path d="M1140 2992 c0 -13 84 -127 101 -138 7 -4 2 7 -12 25 -13 18 -39 53
-56 78 -18 25 -33 41 -33 35z"/>
<path d="M5529 2923 c-32 -39 -44 -57 -32 -50 13 8 57 67 50 67 -2 0 -10 -8
-18 -17z"/>
<path d="M1542 2910 c0 -14 2 -19 5 -12 2 6 2 18 0 25 -3 6 -5 1 -5 -13z"/>
<path d="M4821 2891 c-29 -56 -26 -65 4 -12 14 24 23 46 21 48 -3 3 -14 -13
-25 -36z"/>
<path d="M5091 2904 c0 -11 3 -14 6 -6 3 7 2 16 -1 19 -3 4 -6 -2 -5 -13z"/>
<path d="M2190 2901 c20 -14 119 -43 133 -38 6 2 -18 11 -53 21 -35 10 -71 20
-79 23 -14 4 -14 4 -1 -6z"/>
<path d="M3160 2895 c-23 -9 -28 -14 -15 -14 11 0 31 6 45 14 31 18 16 18 -30
0z"/>
<path d="M1140 2861 c0 -6 4 -13 10 -16 6 -3 7 1 4 9 -7 18 -14 21 -14 7z"/>
<path d="M1621 2820 c-6 -28 -10 -72 -10 -98 2 -44 2 -42 9 18 4 36 11 80 15
98 4 17 5 32 2 32 -3 0 -10 -23 -16 -50z"/>
<path d="M1826 2850 c3 -14 10 -32 15 -40 7 -13 8 -13 8 0 0 8 -6 26 -15 40
l-15 25 7 -25z"/>
<path d="M5102 2855 c0 -11 3 -29 8 -40 11 -25 11 1 0 35 -6 20 -8 21 -8 5z"/>
<path d="M927 2811 c-10 -3 25 -7 77 -6 52 0 88 3 78 7 -22 9 -132 9 -155 -1z"/>
<path d="M5563 2813 c-6 -4 26 -8 70 -8 57 -1 92 -6 116 -18 19 -9 36 -15 38
-13 2 2 -13 12 -34 22 -40 19 -169 31 -190 17z"/>
<path d="M1852 2760 c0 -8 4 -26 8 -40 6 -20 8 -21 8 -5 0 11 -3 29 -8 40 -5
12 -8 14 -8 5z"/>
<path d="M5820 2756 c0 -3 27 -19 61 -36 33 -17 58 -26 54 -20 -4 6 -28 22
-55 35 -50 25 -60 29 -60 21z"/>
<path d="M729 2719 l-24 -20 30 17 c39 24 40 24 28 24 -6 0 -21 -9 -34 -21z"/>
<path d="M1462 2680 c-19 -49 -21 -63 -11 -82 13 -26 129 -148 141 -148 4 0
-19 27 -52 60 -95 95 -97 100 -70 165 13 31 21 58 19 60 -3 2 -15 -23 -27 -55z"/>
<path d="M2003 2718 c-2 -17 0 -19 6 -9 7 11 16 10 47 -9 l39 -23 -35 31 c-42
37 -55 39 -57 10z"/>
<path d="M4570 2710 c-43 -36 -36 -39 10 -5 18 13 38 22 43 18 6 -3 7 -1 3 5
-10 17 -17 15 -56 -18z"/>
<path d="M4632 2690 c0 -14 2 -19 5 -12 2 6 2 18 0 25 -3 6 -5 1 -5 -13z"/>
<path d="M5023 2655 c0 -33 2 -45 4 -27 2 18 2 45 0 60 -2 15 -4 0 -4 -33z"/>
<path d="M1873 2610 c0 -47 2 -66 4 -42 2 23 2 61 0 85 -2 23 -4 4 -4 -43z"/>
<path d="M2110 2655 c1 -5 14 -26 31 -45 17 -19 26 -26 20 -15 -15 30 -51 71
-51 60z"/>
<path d="M4642 2635 c0 -16 2 -22 5 -12 2 9 2 23 0 30 -3 6 -5 -1 -5 -18z"/>
<path d="M1613 2600 c0 -25 2 -35 4 -22 2 12 2 32 0 45 -2 12 -4 2 -4 -23z"/>
<path d="M5870 2598 c-37 -34 -39 -37 -10 -17 41 27 64 48 59 53 -2 2 -24 -14
-49 -36z"/>
<path d="M737 2609 c12 -13 37 -33 55 -43 39 -22 29 -12 -32 34 -33 25 -39 27
-23 9z"/>
<path d="M5181 2614 c0 -11 3 -14 6 -6 3 7 2 16 -1 19 -3 4 -6 -2 -5 -13z"/>
<path d="M4652 2570 c0 -19 2 -27 5 -17 2 9 2 25 0 35 -3 9 -5 1 -5 -18z"/>
<path d="M5293 2583 c9 -2 23 -2 30 0 6 3 -1 5 -18 5 -16 0 -22 -2 -12 -5z"/>
<path d="M4436 2555 c-9 -26 -7 -32 5 -12 6 10 9 21 6 23 -2 3 -7 -2 -11 -11z"/>
<path d="M5011 2544 c0 -11 3 -14 6 -6 3 7 2 16 -1 19 -3 4 -6 -2 -5 -13z"/>
<path d="M1621 2530 c0 -14 4 -32 9 -40 9 -13 10 -13 9 0 -1 8 -5 26 -9 40
l-8 25 -1 -25z"/>
<path d="M5105 2530 c-10 -11 -14 -20 -8 -20 5 0 18 9 28 20 10 11 14 20 8 20
-5 0 -18 -9 -28 -20z"/>
<path d="M845 2530 c3 -5 11 -10 16 -10 6 0 7 5 4 10 -3 6 -11 10 -16 10 -6 0
-7 -4 -4 -10z"/>
<path d="M5210 2515 c-13 -14 -21 -27 -18 -30 2 -3 14 9 27 25 26 37 23 39 -9
5z"/>
<path d="M5448 2523 c7 -3 16 -2 19 1 4 3 -2 6 -13 5 -11 0 -14 -3 -6 -6z"/>
<path d="M5715 2513 c-38 -14 -85 -14 -205 2 l-35 5 30 -10 c17 -6 66 -13 110
-16 66 -4 87 -2 120 15 48 23 36 26 -20 4z"/>
<path d="M895 2510 c3 -5 14 -10 23 -10 15 0 15 2 2 10 -20 13 -33 13 -25 0z"/>
<path d="M1118 2513 c7 -3 16 -2 19 1 4 3 -2 6 -13 5 -11 0 -14 -3 -6 -6z"/>
<path d="M1410 2516 c0 -2 8 -10 18 -17 15 -13 16 -12 3 4 -13 16 -21 21 -21
13z"/>
<path d="M1846 2414 c-10 -58 -16 -108 -13 -110 5 -5 20 75 33 169 13 91 -3
46 -20 -59z"/>
<path d="M2210 2506 c0 -8 4 -17 9 -20 5 -4 7 3 4 14 -6 23 -13 26 -13 6z"/>
<path d="M2355 2510 c3 -5 13 -10 21 -10 8 0 12 5 9 10 -3 6 -13 10 -21 10 -8
0 -12 -4 -9 -10z"/>
<path d="M4241 2511 c-9 -6 -5 -8 13 -8 14 0 26 3 26 8 0 11 -21 11 -39 0z"/>
<path d="M4662 2450 c-2 -69 -18 -165 -36 -215 -5 -13 -2 -11 8 5 21 35 38
144 33 220 l-3 65 -2 -75z"/>
<path d="M948 2493 c6 -2 18 -2 25 0 6 3 1 5 -13 5 -14 0 -19 -2 -12 -5z"/>
<path d="M4282 2370 c-2 -100 -16 -206 -37 -290 -5 -19 -4 -21 4 -10 21 31 42
194 39 305 l-4 110 -2 -115z"/>
<path d="M2231 2454 c0 -11 3 -14 6 -6 3 7 2 16 -1 19 -3 4 -6 -2 -5 -13z"/>
<path d="M2495 2428 c22 -20 42 -34 44 -32 5 5 -20 28 -54 49 -23 15 -21 11
10 -17z"/>
<path d="M4121 2430 c-19 -16 -33 -32 -30 -34 2 -2 22 11 44 30 22 18 36 34
30 33 -5 0 -25 -13 -44 -29z"/>
<path d="M5138 2443 c-8 -10 -19 -25 -23 -33 -8 -13 -7 -13 9 -1 16 14 41 51
33 51 -2 0 -11 -8 -19 -17z"/>
<path d="M2242 2400 c0 -14 2 -19 5 -12 2 6 2 18 0 25 -3 6 -5 1 -5 -13z"/>
<path d="M5302 2365 c12 -13 118 -53 112 -43 -7 10 -49 30 -94 43 -14 4 -22 4
-18 0z"/>
<path d="M4045 2349 c-4 -6 -5 -12 -2 -15 2 -3 7 2 10 11 7 17 1 20 -8 4z"/>
<path d="M1238 2334 c-39 -21 -35 -28 5 -8 37 19 44 24 31 24 -5 -1 -21 -8
-36 -16z"/>
<path d="M1130 2258 c-25 -22 -38 -36 -29 -32 24 13 82 64 78 68 -2 2 -24 -14
-49 -36z"/>
<path d="M2253 2230 c0 -41 2 -58 4 -37 2 20 2 54 0 75 -2 20 -4 3 -4 -38z"/>
<path d="M2611 2295 c0 -6 7 -26 15 -45 l14 -35 -6 35 c-5 31 -25 69 -23 45z"/>
<path d="M4797 2260 c-3 -11 -3 -20 -1 -20 2 0 8 9 14 20 6 11 7 20 2 20 -6 0
-12 -9 -15 -20z"/>
<path d="M5491 2263 c0 -4 16 -21 35 -37 19 -15 32 -22 28 -15 -7 17 -64 64
-63 52z"/>
<path d="M1850 2235 c13 -14 26 -25 28 -25 3 0 -5 11 -18 25 -13 14 -26 25
-28 25 -3 0 5 -11 18 -25z"/>
<path d="M2001 2235 c0 -5 6 -21 14 -35 8 -14 14 -20 14 -15 0 6 -6 21 -14 35
-8 14 -14 21 -14 15z"/>
<path d="M4759 2223 c-13 -16 -12 -17 4 -4 16 13 21 21 13 21 -2 0 -10 -8 -17
-17z"/>
<path d="M1685 2210 c-3 -6 1 -7 9 -4 18 7 21 14 7 14 -6 0 -13 -4 -16 -10z"/>
<path d="M1774 2179 c56 -50 126 -103 126 -96 0 6 -119 103 -154 126 -11 8 1
-6 28 -30z"/>
<path d="M4940 2206 c0 -2 8 -10 18 -17 15 -13 16 -12 3 4 -13 16 -21 21 -21
13z"/>
<path d="M1050 2181 c-12 -24 -13 -31 -1 -31 5 0 11 11 13 25 6 30 2 32 -12 6z"/>
<path d="M4839 2174 c-13 -15 -41 -37 -62 -51 -22 -13 -36 -27 -33 -30 6 -6
107 72 119 93 12 21 3 17 -24 -12z"/>
<path d="M1935 2164 c24 -19 75 -46 75 -41 0 6 -79 57 -87 57 -5 0 1 -8 12
-16z"/>
<path d="M4980 2176 c0 -2 8 -10 18 -17 15 -13 16 -12 3 4 -13 16 -21 21 -21
13z"/>
<path d="M5580 2172 c0 -7 -21 -25 -47 -42 -27 -16 -45 -30 -40 -30 11 0 84
47 92 60 4 6 4 14 1 17 -3 4 -6 1 -6 -5z"/>
<path d="M3962 2150 c0 -14 2 -19 5 -12 2 6 2 18 0 25 -3 6 -5 1 -5 -13z"/>
<path d="M4660 2149 c-22 -18 -22 -19 -3 -10 12 6 25 16 28 21 9 15 3 12 -25
-11z"/>
<path d="M5020 2145 c0 -7 101 -57 106 -53 2 2 -21 16 -51 31 -30 15 -55 25
-55 22z"/>
<path d="M1070 2136 c0 -8 101 -58 106 -53 2 2 -17 14 -43 28 -62 31 -63 32
-63 25z"/>
<path d="M1530 2110 c-8 -5 -10 -10 -5 -10 6 0 17 5 25 10 8 5 11 10 5 10 -5
0 -17 -5 -25 -10z"/>
<path d="M3946 2083 c-10 -68 -18 -188 -13 -183 6 6 28 213 23 218 -2 2 -7
-14 -10 -35z"/>
<path d="M2242 2080 c0 -14 2 -19 5 -12 2 6 2 18 0 25 -3 6 -5 1 -5 -13z"/>
<path d="M2390 2060 c0 -13 38 -80 46 -80 4 0 -34 80 -42 89 -2 2 -4 -2 -4 -9z"/>
<path d="M1820 2030 c-12 -8 -11 -10 7 -10 12 0 25 5 28 10 8 13 -15 13 -35 0z"/>
<path d="M2692 2010 c0 -14 2 -19 5 -12 2 6 2 18 0 25 -3 6 -5 1 -5 -13z"/>
<path d="M4808 2023 c6 -2 18 -2 25 0 6 3 1 5 -13 5 -14 0 -19 -2 -12 -5z"/>
<path d="M4199 2003 c-29 -35 -41 -53 -36 -53 2 0 17 16 31 35 28 36 31 49 5
18z"/>
<path d="M2279 1971 c13 -12 28 -21 35 -21 12 0 -5 14 -39 31 -16 8 -15 6 4
-10z"/>
<path d="M4955 1955 c28 -20 62 -50 77 -68 15 -17 28 -27 28 -22 0 20 -123
125 -147 125 -4 0 15 -16 42 -35z"/>
<path d="M1577 1881 c-37 -38 -67 -73 -67 -78 1 -4 16 10 35 32 18 22 53 57
77 77 24 21 38 38 32 38 -6 0 -41 -31 -77 -69z"/>
<path d="M2340 1940 c8 -5 22 -9 30 -9 10 0 8 3 -5 9 -27 12 -43 12 -25 0z"/>
<path d="M4265 1940 c-13 -6 -15 -9 -5 -9 8 0 22 4 30 9 18 12 2 12 -25 0z"/>
<path d="M2119 1913 c-13 -15 -12 -15 7 -3 16 10 29 10 55 2 31 -11 32 -10 15
3 -26 20 -60 19 -77 -2z"/>
<path d="M4530 1886 c0 -2 8 -10 18 -17 15 -13 16 -12 3 4 -13 16 -21 21 -21
13z"/>
<path d="M2038 1840 c-23 -22 -37 -40 -32 -40 6 0 28 18 49 40 21 22 36 40 31
40 -4 0 -26 -18 -48 -40z"/>
<path d="M3931 1864 c0 -11 3 -14 6 -6 3 7 2 16 -1 19 -3 4 -6 -2 -5 -13z"/>
<path d="M4590 1826 c14 -15 34 -33 45 -39 18 -9 19 -9 6 7 -8 9 -28 27 -45
38 l-31 22 25 -28z"/>
<path d="M5115 1793 c20 -38 19 -49 -7 -67 -12 -9 -17 -16 -11 -16 6 0 21 8
33 18 22 17 22 19 6 49 -9 18 -20 34 -26 38 -5 3 -3 -7 5 -22z"/>
<path d="M2870 1780 c8 -5 20 -10 25 -10 6 0 3 5 -5 10 -8 5 -19 10 -25 10 -5
0 -3 -5 5 -10z"/>
<path d="M3745 1780 c-3 -6 1 -7 9 -4 18 7 21 14 7 14 -6 0 -13 -4 -16 -10z"/>
<path d="M4333 1774 c4 -4 26 -16 49 -26 29 -13 38 -14 28 -5 -15 14 -90 44
-77 31z"/>
<path d="M1946 1761 c-3 -5 -27 -18 -52 -30 -25 -12 -44 -25 -41 -28 7 -6 93
42 102 57 3 6 4 10 1 10 -3 0 -7 -4 -10 -9z"/>
<path d="M2255 1760 c-8 -13 5 -13 25 0 13 8 13 10 -2 10 -9 0 -20 -4 -23 -10z"/>
<path d="M2965 1749 c33 -10 65 -18 70 -18 18 1 -89 37 -110 37 -11 0 7 -8 40
-19z"/>
<path d="M3645 1753 c-27 -9 -45 -17 -40 -19 6 -3 35 4 65 15 66 23 46 26 -25
4z"/>
<path d="M1480 1749 c0 -15 68 -54 78 -45 2 3 -8 10 -24 16 -16 6 -35 18 -41
27 -11 14 -13 14 -13 2z"/>
<path d="M2209 1733 c-13 -15 -12 -15 9 -4 23 12 28 21 13 21 -5 0 -15 -7 -22
-17z"/>
<path d="M4700 1745 c0 -7 81 -47 86 -43 2 3 -17 14 -41 26 -25 12 -45 20 -45
17z"/>
<path d="M2685 1725 c70 -17 86 -18 64 -5 -8 5 -40 11 -70 14 l-54 6 60 -15z"/>
<path d="M3978 1733 c6 -2 18 -2 25 0 6 3 1 5 -13 5 -14 0 -19 -2 -12 -5z"/>
<path d="M3918 1723 c7 -3 16 -2 19 1 4 3 -2 6 -13 5 -11 0 -14 -3 -6 -6z"/>
<path d="M2149 1687 c-19 -17 -44 -45 -54 -62 -21 -34 -17 -31 50 43 54 59 56
66 4 19z"/>
<path d="M4481 1675 c24 -28 57 -66 72 -85 16 -20 23 -25 17 -12 -6 12 -38 51
-72 85 -44 45 -48 48 -17 12z"/>
<path d="M4040 1704 c0 -6 7 -19 15 -30 8 -10 14 -14 14 -9 0 6 -6 19 -14 29
-8 11 -15 15 -15 10z"/>
<path d="M3131 1685 c9 -9 119 -55 119 -49 0 3 -25 16 -55 30 -53 23 -74 29
-64 19z"/>
<path d="M2525 1621 c-15 -22 -54 -65 -86 -97 -33 -31 -58 -58 -56 -60 5 -6
152 148 166 174 18 35 7 26 -24 -17z"/>
<path d="M3394 1644 c-19 -15 -19 -15 1 -6 11 5 27 12 35 15 13 5 13 6 -1 6
-8 1 -24 -6 -35 -15z"/>
<path d="M2984 1629 c27 -11 50 -18 53 -16 5 6 -73 37 -90 36 -6 0 10 -9 37
-20z"/>
<path d="M4161 1537 c88 -80 109 -97 121 -97 7 0 22 -7 32 -15 11 -8 27 -15
35 -15 9 0 -7 12 -34 26 -58 31 -109 67 -147 106 -15 16 -31 28 -35 28 -4 0 8
-15 28 -33z"/>
<path d="M2031 1537 c-12 -16 -43 -87 -37 -87 2 0 15 23 29 50 26 51 28 60 8
37z"/>
<path d="M3480 1505 c0 -2 28 -23 63 -46 34 -24 56 -35 48 -26 -14 17 -111 80
-111 72z"/>
<path d="M3084 1464 c-18 -14 -18 -15 4 -4 12 6 22 13 22 15 0 8 -5 6 -26 -11z"/>
<path d="M4633 1440 c6 -21 14 -37 18 -34 9 5 -8 61 -21 69 -4 2 -2 -13 3 -35z"/>
<path d="M2344 1444 c-18 -14 -18 -15 4 -4 12 6 22 13 22 15 0 8 -5 6 -26 -11z"/>
<path d="M3242 1430 c-23 -17 -42 -33 -42 -36 0 -4 15 5 34 20 19 14 39 26 45
26 5 0 13 5 16 10 12 19 -12 10 -53 -20z"/>
<path d="M3430 1390 c14 -11 39 -30 55 -41 26 -18 25 -16 -5 11 -19 17 -44 36
-55 41 -14 7 -13 4 5 -11z"/>
<path d="M3685 1346 c22 -19 42 -32 44 -30 6 6 -61 63 -74 63 -5 1 8 -15 30
-33z"/>
<path d="M2877 1297 c-47 -45 -77 -80 -76 -92 0 -15 2 -16 6 -5 3 8 40 50 81
93 42 42 74 77 71 77 -3 0 -40 -33 -82 -73z"/>
<path d="M3050 1269 l-95 -91 93 82 c84 75 109 100 100 100 -2 0 -46 -41 -98
-91z"/>
<path d="M3740 1303 c0 -5 19 -27 42 -48 l42 -40 -33 42 c-34 45 -51 60 -51
46z"/>
<path d="M3595 1250 c27 -27 51 -50 54 -50 3 0 -17 23 -44 50 -27 28 -51 50
-54 50 -3 0 17 -22 44 -50z"/>
<path d="M3787 1159 c-21 -21 -41 -39 -45 -39 -3 0 -24 17 -47 38 l-40 37 35
-40 c19 -22 40 -43 45 -47 10 -8 103 77 94 86 -2 3 -21 -13 -42 -35z"/>
<path d="M2844 1142 c38 -41 59 -40 87 1 l22 32 -31 -29 -31 -29 -38 28 -38
28 29 -31z"/>
<path d="M3968 592 c-94 -3 -98 -4 -97 -25 1 -18 2 -18 6 -4 4 16 16 18 99 16
52 -1 94 2 95 6 1 10 1 10 -103 7z"/>
<path d="M2663 573 c-10 -10 -13 -14 -5 -8 8 5 35 12 61 16 l46 6 -41 2 c-27
1 -48 -5 -61 -16z"/>
<path d="M2912 584 c8 -7 218 -7 226 0 3 3 -48 6 -113 6 -65 0 -116 -3 -113
-6z"/>
<path d="M3278 574 c-16 -8 -28 -19 -28 -25 0 -6 12 -1 26 10 29 23 74 27 105
11 11 -6 19 -7 19 -1 0 24 -81 28 -122 5z"/>
<path d="M3550 584 c35 -7 183 -10 165 -3 -11 4 -56 7 -100 7 -44 0 -73 -2
-65 -4z"/>
<path d="M2798 539 c14 -21 27 -37 29 -35 8 7 -26 63 -41 69 -8 3 -4 -9 12
-34z"/>
<path d="M4060 541 c0 -25 6 -27 13 -6 4 8 2 17 -3 20 -6 4 -10 -3 -10 -14z"/>
<path d="M2771 498 c13 -29 51 -39 65 -17 4 8 -1 9 -16 4 -18 -6 -28 -2 -42
16 l-19 24 12 -27z"/>
<path d="M3594 410 c0 -58 1 -81 3 -52 2 28 2 76 0 105 -2 28 -3 5 -3 -53z"/>
<path d="M3762 423 c-1 -50 -5 -100 -8 -110 -5 -17 -5 -17 6 -1 6 11 9 54 7
110 l-3 93 -2 -92z"/>
<path d="M3872 445 c0 -16 2 -22 5 -12 2 9 2 23 0 30 -3 6 -5 -1 -5 -18z"/>
<path d="M3393 360 c0 -36 2 -50 4 -32 2 17 2 47 0 65 -2 17 -4 3 -4 -33z"/>
<path d="M3054 290 c0 -69 1 -97 3 -63 2 35 2 91 0 126 -2 34 -3 6 -3 -63z"/>
<path d="M3871 384 c0 -11 3 -14 6 -6 3 7 2 16 -1 19 -3 4 -6 -2 -5 -13z"/>
<path d="M2690 372 c0 -5 19 -29 41 -53 43 -46 35 -28 -13 29 -16 18 -28 29
-28 24z"/>
<path d="M3873 285 c0 -38 2 -53 4 -32 2 20 2 52 0 70 -2 17 -4 1 -4 -38z"/>
<path d="M4010 326 c0 -2 7 -6 15 -10 8 -3 15 -1 15 4 0 6 -7 10 -15 10 -8 0
-15 -2 -15 -4z"/>
<path d="M2670 312 c0 -5 22 -35 50 -66 54 -62 66 -90 56 -139 -6 -29 -5 -31
10 -15 28 28 10 79 -56 158 -33 40 -60 68 -60 62z"/>
<path d="M3393 220 c0 -36 2 -50 4 -32 2 17 2 47 0 65 -2 17 -4 3 -4 -33z"/>
<path d="M2800 229 c22 -48 27 -138 9 -171 -6 -11 -8 -22 -5 -25 9 -9 36 63
36 95 0 37 -28 118 -46 133 -10 8 -8 -2 6 -32z"/>
<path d="M3594 110 c0 -63 1 -89 3 -57 2 31 2 83 0 115 -2 31 -3 5 -3 -58z"/>
<path d="M2601 133 c0 -10 4 -27 9 -38 7 -16 9 -14 7 13 -1 19 -5 36 -9 38 -4
3 -8 -3 -7 -13z"/>
<path d="M2630 140 c0 -5 5 -10 10 -10 6 0 10 5 10 10 0 6 -4 10 -10 10 -5 0
-10 -4 -10 -10z"/>
<path d="M3761 64 c0 -16 4 -38 9 -49 6 -13 7 -5 3 25 -7 53 -13 66 -12 24z"/>
<path d="M3411 44 c-12 -27 -11 -28 4 -12 10 9 16 21 13 28 -2 7 -10 -1 -17
-16z"/>
<path d="M4062 40 c0 -19 2 -27 5 -17 2 9 2 25 0 35 -3 9 -5 1 -5 -18z"/>
</g>
</svg>
