<?xml version="1.0" standalone="no"?>
<!DOCTYPE svg PUBLIC "-//W3C//DTD SVG 20010904//EN"
 "http://www.w3.org/TR/2001/REC-SVG-20010904/DTD/svg10.dtd">
<svg version="1.0" xmlns="http://www.w3.org/2000/svg"
 width="1112.000000pt" height="824.000000pt" viewBox="0 0 1112.000000 824.000000"
 preserveAspectRatio="xMidYMid meet">

<g transform="translate(0.000000,824.000000) scale(0.100000,-0.100000)"
fill="#000000" stroke="none">
<path d="M3817 8211 c-99 -93 -119 -116 -142 -161 -37 -73 -55 -154 -55 -246
l0 -83 -84 -25 c-46 -14 -87 -26 -91 -26 -3 0 -32 -12 -63 -26 -31 -15 -75
-33 -96 -40 -22 -8 -45 -19 -53 -26 -30 -24 -25 7 14 85 57 114 60 136 29 241
-35 122 -64 172 -99 169 -64 -4 -210 -128 -262 -224 -26 -48 -30 -65 -33 -159
-3 -89 -1 -113 17 -158 12 -29 21 -58 21 -66 0 -7 -37 -30 -82 -51 -46 -21
-124 -62 -175 -91 -51 -30 -99 -54 -107 -54 -24 0 -29 19 -11 47 13 20 18 50
19 117 1 86 -1 95 -36 166 -40 79 -93 154 -117 165 -19 8 -83 -38 -138 -99
-48 -53 -99 -148 -109 -202 -8 -45 30 -176 76 -261 22 -39 38 -78 35 -85 -6
-14 -304 -238 -318 -238 -1 0 -2 39 -2 87 0 118 -28 177 -141 292 -78 79 -84
83 -115 77 -44 -8 -83 -47 -124 -121 -69 -126 -52 -237 61 -406 25 -37 54 -75
64 -84 32 -29 24 -53 -48 -130 -37 -40 -83 -96 -102 -124 -19 -28 -41 -50 -49
-48 -8 1 -19 23 -26 52 -29 122 -109 223 -250 310 -66 41 -87 49 -128 50 l-49
0 -25 -75 c-35 -106 -30 -191 16 -284 41 -85 80 -128 187 -212 46 -36 84 -72
84 -80 0 -8 -17 -38 -38 -67 -21 -29 -44 -64 -51 -78 -22 -45 -86 -124 -103
-127 -12 -2 -20 11 -32 52 -32 109 -112 184 -292 272 -125 61 -165 72 -180 52
-14 -18 -34 -111 -34 -157 0 -49 26 -135 54 -180 32 -50 110 -120 192 -173
145 -95 168 -108 181 -108 19 0 16 -41 -9 -96 -27 -62 -48 -140 -48 -181 0
-61 -42 -51 -83 20 -14 24 -45 61 -68 82 -79 72 -361 185 -459 185 l-53 0 5
-82 c3 -69 9 -93 37 -144 71 -133 191 -220 433 -315 l87 -34 6 -47 c10 -69 -4
-238 -19 -238 -7 0 -37 18 -67 41 -104 78 -236 131 -422 170 -203 42 -228 20
-152 -131 38 -77 91 -144 141 -179 101 -73 269 -142 432 -177 73 -15 81 -19
85 -43 3 -14 17 -73 32 -129 17 -64 24 -107 18 -113 -6 -6 -26 3 -53 22 -61
45 -183 98 -260 115 -70 15 -387 31 -413 21 -51 -19 107 -236 219 -302 109
-64 312 -115 556 -140 48 -5 58 -10 63 -28 3 -12 19 -51 34 -87 16 -36 35 -80
42 -98 8 -17 18 -32 23 -32 6 0 5 -5 -2 -12 -8 -8 -24 -5 -64 17 -127 66 -178
77 -378 82 -102 2 -219 0 -260 -4 l-75 -8 3 -35 c4 -47 21 -71 95 -130 171
-136 336 -187 655 -198 l183 -7 47 -51 c107 -115 162 -183 153 -189 -5 -3 -43
8 -84 24 -107 43 -179 53 -320 46 -164 -8 -246 -21 -345 -52 -61 -20 -82 -31
-80 -42 5 -25 226 -168 309 -200 41 -17 115 -35 165 -42 115 -15 409 -6 477
15 26 9 60 13 75 10 15 -3 68 -39 117 -80 50 -42 102 -83 118 -92 30 -18 37
-52 10 -52 -10 0 -38 10 -63 21 -37 18 -65 21 -165 22 -66 0 -148 -5 -181 -12
-70 -13 -345 -98 -357 -110 -4 -4 -9 -21 -10 -37 -2 -27 4 -32 100 -80 160
-80 245 -99 438 -98 163 0 284 17 463 63 83 22 91 20 187 -33 39 -21 98 -54
132 -73 35 -19 63 -38 63 -42 0 -5 -80 -11 -177 -13 -167 -4 -184 -7 -278 -37
-103 -34 -301 -131 -322 -158 -18 -24 -6 -39 55 -66 294 -129 631 -111 985 52
75 35 94 37 122 17 11 -7 58 -30 104 -50 92 -40 144 -73 136 -85 -2 -5 -45
-11 -94 -15 -122 -9 -228 -38 -336 -90 -107 -53 -260 -161 -260 -184 0 -55
179 -97 405 -96 137 0 152 2 267 37 125 37 232 86 361 164 l74 45 156 -34 c86
-19 157 -39 159 -45 2 -5 -30 -19 -71 -31 -175 -51 -327 -143 -454 -276 -132
-137 -127 -141 187 -141 l236 0 90 33 c152 54 298 139 432 250 79 66 76 64
140 53 32 -6 143 -24 247 -42 247 -41 541 -112 541 -130 0 -15 -17 -25 -255
-137 -160 -76 -330 -175 -330 -192 0 -25 162 -114 190 -105 11 3 72 38 137 77
128 77 456 241 513 256 25 6 52 5 89 -5 81 -20 337 -143 474 -226 206 -126
190 -122 286 -61 50 32 60 43 58 64 -3 37 -110 105 -307 195 -308 141 -305
138 -160 172 124 30 515 109 607 122 133 20 156 17 215 -34 147 -124 262 -192
428 -251 l105 -38 236 -4 c259 -4 269 -2 255 54 -14 56 -186 209 -317 283 -63
35 -212 90 -246 91 -22 0 -40 16 -29 27 5 5 203 55 278 70 21 4 51 -8 130 -54
250 -144 458 -203 677 -190 107 7 290 46 317 68 34 28 15 52 -89 121 -196 128
-289 164 -462 180 -66 6 -124 15 -129 19 -9 8 264 149 289 149 7 0 47 -16 88
-35 185 -84 399 -135 566 -135 143 0 337 43 458 102 24 12 36 34 27 50 -11 18
-246 127 -329 152 -129 40 -163 45 -302 46 -78 0 -133 4 -133 10 0 27 245 160
296 160 18 0 53 -6 76 -14 125 -42 261 -61 433 -60 157 0 177 2 260 28 87 26
267 100 293 119 17 13 15 42 -3 61 -9 8 -68 32 -133 52 -64 20 -137 42 -162
50 -24 8 -96 19 -160 25 -110 11 -120 10 -220 -14 -99 -25 -132 -24 -115 3 4
6 61 54 128 107 l120 96 91 -19 c72 -15 133 -19 296 -19 199 0 208 1 292 29
95 31 219 98 298 161 88 70 65 93 -120 126 -94 16 -165 21 -285 21 -162 0
-175 -2 -327 -51 -47 -15 -37 2 90 144 l72 82 193 6 c203 7 345 31 450 76 69
30 174 100 236 158 46 43 54 56 55 89 l1 39 -90 8 c-49 5 -164 6 -255 4 -175
-5 -247 -20 -352 -73 -90 -45 -92 -38 -32 87 30 61 54 115 54 120 0 16 42 26
145 33 164 11 362 67 471 132 107 64 219 194 231 269 l6 35 -129 0 c-240 -1
-393 -35 -537 -122 -42 -25 -72 -37 -77 -32 -6 6 -1 40 14 88 14 44 28 96 31
117 4 21 12 42 19 48 7 6 64 24 127 40 207 53 387 144 451 228 49 65 108 190
108 230 0 32 -2 33 -38 33 -103 0 -351 -61 -470 -115 -29 -13 -79 -49 -111
-80 -32 -30 -63 -55 -69 -55 -9 0 -12 43 -12 148 l0 149 113 47 c214 91 346
184 400 285 28 51 57 160 57 219 0 32 -1 32 -47 32 -98 0 -309 -73 -417 -145
-31 -20 -78 -65 -103 -99 -74 -96 -103 -111 -103 -51 0 19 -13 87 -30 152 -16
64 -30 120 -30 123 0 4 28 21 62 39 158 83 299 206 339 295 37 85 34 263 -6
296 -31 26 -275 -88 -368 -171 -64 -57 -117 -139 -117 -181 0 -24 -4 -28 -30
-28 -28 0 -33 7 -81 103 -28 56 -60 114 -70 129 -11 14 -19 33 -19 41 0 8 36
46 80 83 98 84 171 172 206 249 24 51 26 66 20 129 -3 39 -11 88 -16 109 -13
43 -65 107 -87 107 -25 0 -170 -91 -229 -143 -73 -65 -113 -126 -144 -219 -15
-44 -30 -74 -36 -70 -5 4 -25 27 -44 52 -19 25 -68 80 -108 122 -47 50 -70 82
-66 90 4 7 31 42 60 78 63 80 106 156 133 237 19 55 19 65 7 107 -17 56 -76
162 -111 200 -21 23 -32 27 -56 22 -45 -9 -135 -81 -185 -148 -66 -90 -84
-138 -84 -224 0 -41 -4 -74 -9 -74 -25 0 -301 215 -301 235 0 6 18 46 39 88
65 130 78 275 32 365 -27 53 -123 156 -160 172 -40 16 -62 3 -117 -72 -50 -68
-89 -147 -99 -200 -7 -35 19 -162 37 -185 6 -7 5 -14 -3 -19 -8 -4 -87 31
-196 87 -157 80 -183 97 -180 114 3 11 15 58 27 105 19 74 21 94 12 152 -12
78 -47 160 -89 208 -47 54 -165 130 -200 130 -38 0 -55 -19 -92 -107 -22 -52
-31 -88 -31 -128 0 -72 17 -139 41 -161 10 -9 19 -23 19 -31 0 -8 9 -23 20
-35 11 -12 20 -25 20 -30 0 -11 -24 -10 -36 2 -5 5 -68 30 -139 54 -72 25
-159 56 -195 69 l-65 25 -2 93 c-5 190 -71 329 -175 373 -21 8 -38 22 -38 30
0 14 -18 16 -115 16 l-115 0 -6 -26 c-4 -14 -4 -64 -1 -110 6 -96 26 -145 88
-214 22 -25 47 -57 54 -71 8 -15 38 -48 67 -73 l53 -46 -45 -1 c-25 -1 -70 0
-100 1 -117 4 -244 -46 -385 -152 -71 -53 -85 -68 -85 -91 0 -49 48 -62 230
-62 148 1 159 2 250 33 111 37 162 65 285 156 102 76 90 74 225 21 47 -19 109
-39 138 -46 36 -7 58 -18 68 -34 9 -13 28 -25 42 -27 17 -2 28 -10 30 -22 4
-16 -1 -18 -40 -11 -91 14 -212 16 -257 5 -70 -19 -262 -115 -309 -156 -29
-25 -42 -43 -40 -57 5 -32 155 -59 338 -60 127 -1 157 2 241 25 95 26 230 83
280 119 15 10 38 19 51 19 30 0 367 -162 368 -177 0 -21 -38 -25 -118 -12
-106 16 -241 5 -339 -27 -106 -35 -243 -102 -243 -118 0 -18 60 -49 180 -94
93 -35 98 -35 245 -36 107 0 171 5 222 17 104 24 213 65 251 94 l33 24 42 -20
c23 -12 67 -42 98 -68 31 -27 91 -74 133 -106 42 -32 74 -63 71 -68 -10 -16
-59 -10 -136 17 -93 32 -189 40 -304 25 -102 -14 -284 -57 -302 -73 -7 -6 -13
-23 -13 -39 0 -26 8 -32 103 -79 155 -77 213 -90 392 -90 156 0 304 18 368 45
60 25 83 20 139 -32 57 -53 151 -175 162 -210 11 -33 -16 -30 -103 13 -57 28
-91 37 -163 45 -99 10 -355 -3 -421 -22 -36 -10 -38 -12 -35 -47 3 -31 12 -43
61 -83 70 -56 165 -103 266 -132 69 -20 100 -22 325 -22 l249 0 44 -65 c85
-125 115 -210 74 -210 -10 0 -24 7 -32 16 -18 22 -92 58 -174 84 -60 20 -97
24 -266 28 -167 3 -201 2 -228 -12 -17 -9 -31 -22 -31 -28 0 -21 174 -183 227
-211 130 -70 340 -117 517 -117 79 0 116 -4 123 -12 18 -24 93 -237 93 -263 0
-28 -48 -12 -115 40 -59 45 -90 58 -240 101 -100 30 -142 36 -252 41 -128 6
-133 5 -133 -14 0 -44 65 -149 134 -219 111 -111 261 -174 504 -210 59 -9 115
-20 124 -25 25 -13 40 -101 36 -209 -4 -119 -16 -125 -77 -40 -73 100 -187
163 -389 215 -53 14 -132 28 -175 32 l-78 6 7 -44 c10 -65 42 -147 80 -205 70
-106 251 -214 459 -274 98 -29 116 -37 121 -57 4 -13 -8 -65 -26 -123 -44
-134 -68 -152 -91 -68 -16 60 -100 144 -196 195 -114 61 -259 114 -318 116
l-50 2 -3 -103 c-2 -86 1 -110 18 -149 54 -122 180 -231 376 -323 67 -32 125
-63 129 -70 4 -7 -2 -24 -13 -39 -11 -15 -36 -59 -55 -98 -28 -55 -42 -72 -63
-77 -33 -9 -44 5 -44 53 0 104 -136 233 -359 340 -59 29 -76 33 -98 25 -40
-14 -65 -87 -67 -194 -1 -78 2 -91 33 -155 42 -85 168 -216 279 -289 39 -26
72 -53 72 -60 0 -34 -163 -226 -192 -226 -3 0 -3 33 0 73 7 114 -6 146 -104
247 -103 107 -211 182 -263 184 -36 1 -36 1 -85 -99 -39 -79 -51 -113 -54
-162 -8 -115 50 -226 195 -375 100 -101 100 -97 -10 -186 -78 -64 -107 -82
-131 -82 -18 0 -22 26 -4 32 20 7 22 110 3 174 -33 114 -193 317 -249 316 -48
0 -166 -126 -207 -220 -26 -60 -25 -171 1 -247 24 -70 80 -176 121 -227 33
-43 36 -59 12 -80 -35 -29 -222 -138 -237 -138 -18 0 -21 11 -8 26 20 22 52
120 52 160 0 103 -47 230 -122 334 -28 39 -50 59 -64 59 -23 1 -147 -93 -205
-155 -62 -66 -119 -193 -119 -263 0 -55 44 -222 74 -279 9 -17 16 -38 16 -46
0 -17 -238 -136 -272 -136 -33 0 -34 30 0 56 17 13 45 48 63 77 30 49 32 58
32 147 0 109 -36 249 -76 296 l-23 27 -86 -40 c-107 -51 -191 -107 -245 -166
-52 -56 -67 -86 -93 -181 -22 -78 -23 -146 -5 -307 l7 -56 -69 -17 c-37 -9
-97 -26 -134 -37 -36 -11 -80 -19 -98 -17 l-33 3 89 90 c80 80 92 97 111 158
18 54 22 89 21 175 -1 59 -4 121 -8 137 -6 28 -9 30 -51 28 -54 -2 -227 -67
-306 -114 -154 -92 -241 -239 -268 -454 l-12 -90 -176 -32 c-205 -37 -442 -91
-613 -138 -210 -59 -221 -60 -300 -37 -183 54 -525 134 -670 156 -127 20 -193
35 -226 52 -25 12 -26 17 -32 121 -6 100 -9 114 -46 189 -72 145 -184 234
-386 309 -71 27 -109 35 -133 31 -58 -9 -62 -18 -62 -133 0 -112 17 -198 52
-267 25 -48 125 -156 145 -156 23 0 9 -25 -15 -28 -25 -4 -272 64 -286 78 -5
5 -4 51 3 112 13 125 1 261 -31 328 -29 61 -138 166 -226 217 -86 51 -182 86
-198 72 -6 -5 -26 -53 -44 -106 -29 -89 -31 -105 -28 -207 l3 -111 41 -55 c23
-30 51 -64 63 -74 26 -23 27 -33 3 -40 -19 -6 -256 94 -281 119 -12 12 -8 32
29 142 40 122 42 132 38 219 -4 78 -10 99 -38 152 -38 72 -95 134 -182 197
-59 43 -91 53 -113 37 -75 -52 -187 -301 -172 -379 10 -53 44 -134 66 -156 24
-26 27 -37 9 -37 -12 0 -148 77 -215 122 -64 43 -64 61 0 156 66 98 107 197
114 272 6 63 -26 160 -78 241 -38 59 -122 139 -147 139 -26 0 -155 -140 -203
-220 -71 -120 -79 -165 -49 -272 8 -26 11 -50 8 -54 -8 -7 -47 19 -143 95 -76
61 -94 80 -95 98 0 6 39 51 88 100 91 92 137 160 179 264 l25 62 -17 71 c-30
122 -97 236 -139 236 -35 0 -162 -89 -233 -161 -106 -110 -164 -227 -142 -284
13 -35 10 -45 -16 -45 -16 0 -31 10 -42 28 -35 54 -85 115 -109 134 -13 11
-24 25 -24 33 0 15 38 47 102 87 56 35 171 140 219 200 75 96 97 209 64 325
-20 71 -40 103 -63 103 -10 0 -55 -18 -101 -40 -182 -88 -330 -218 -349 -305
-5 -25 -8 -55 -5 -65 10 -37 -72 -39 -83 -2 -3 9 -21 56 -41 104 -19 48 -33
95 -31 104 2 11 38 33 98 59 165 71 292 167 368 278 43 62 53 108 45 215 -6
88 -7 92 -29 92 -46 0 -220 -63 -329 -118 -127 -65 -184 -117 -213 -195 -22
-57 -41 -68 -70 -39 -18 18 -33 100 -36 207 l-1 39 137 46 c323 109 436 203
508 424 30 92 25 96 -130 76 -229 -30 -415 -121 -501 -246 -19 -29 -37 -44
-51 -44 -21 0 -21 2 -14 142 3 78 11 147 16 153 6 7 43 16 83 20 212 20 448
109 551 208 53 51 134 174 143 218 l6 32 -114 -6 c-127 -7 -281 -34 -379 -67
-36 -12 -101 -46 -146 -76 -44 -30 -86 -54 -94 -54 -30 0 34 247 73 278 7 5
79 13 161 16 83 4 175 12 205 17 90 16 204 57 270 97 64 39 231 196 231 217 0
30 -62 40 -223 38 -223 -4 -362 -37 -473 -114 -24 -16 -50 -29 -58 -29 -35 0
-23 25 110 243 l29 48 190 -7 c271 -9 378 8 530 84 145 72 203 126 193 178 -6
31 -57 37 -303 38 l-240 1 -93 -44 c-69 -34 -95 -42 -104 -33 -18 18 -3 40
112 166 69 77 112 116 126 116 11 0 40 -7 65 -15 85 -28 221 -45 366 -45 178
0 231 12 380 87 99 49 112 59 117 86 3 17 3 34 -1 38 -8 7 -208 52 -313 70
-115 19 -238 7 -324 -32 -81 -37 -138 -13 -80 34 59 47 276 196 294 202 11 3
48 -8 92 -29 155 -73 323 -104 498 -91 122 8 149 15 277 76 l106 51 -54 30
c-198 111 -370 146 -574 117 -56 -7 -80 -7 -90 1 -17 14 -9 40 12 40 9 0 84
34 168 75 84 41 163 75 176 75 12 0 70 -25 129 -55 155 -79 255 -106 417 -112
111 -5 146 -3 225 15 51 12 104 22 118 24 29 3 35 23 21 62 -13 34 -171 113
-315 158 -86 26 -107 30 -160 23 -92 -11 -149 -11 -152 0 -4 14 79 73 113 81
16 4 59 20 97 37 45 19 94 31 140 34 69 5 72 4 111 -27 106 -85 268 -169 376
-195 104 -24 403 -15 432 14 22 22 -8 62 -96 129 -163 124 -238 151 -420 152
-43 0 -77 4 -75 9 2 5 18 27 36 48 165 194 186 232 189 348 1 44 0 92 -3 108
l-6 27 -111 -1 c-107 -1 -113 -3 -140 -28z"/>
<path d="M4327 7969 c-91 -21 -297 -131 -297 -159 0 -13 162 -61 225 -67 83
-7 194 12 284 49 42 17 103 41 136 53 l60 23 0 43 0 44 -90 12 c-106 14 -264
15 -318 2z"/>
<path d="M6421 7965 c-57 -8 -110 -16 -117 -19 -77 -30 153 -156 359 -196 68
-14 163 -6 252 20 17 5 56 14 88 20 37 8 57 16 57 26 0 9 -10 14 -28 14 -15 0
-56 17 -92 38 -36 20 -99 53 -140 71 -67 31 -86 35 -175 37 -55 2 -147 -3
-204 -11z"/>
<path d="M3178 6903 c-32 -5 -34 -12 -42 -124 -5 -75 -14 -107 -38 -141 -14
-19 -3 -38 23 -41 12 -2 53 -30 134 -92 17 -14 21 -13 40 9 11 13 27 28 37 32
9 5 34 25 55 45 l40 37 -3 128 c-2 71 -3 135 -3 142 -1 9 -29 12 -108 11 -60
-1 -120 -4 -135 -6z m160 -143 c2 -36 -2 -82 -8 -103 -12 -40 -48 -71 -77 -65
-16 3 -18 14 -14 113 1 61 5 114 8 118 3 4 24 7 46 5 l42 -3 3 -65z"/>
<path d="M7609 6903 c-13 -3 -15 -14 -11 -53 2 -27 1 -83 -3 -124 -6 -72 -8
-75 -36 -81 -38 -8 -37 -21 4 -41 17 -9 58 -34 89 -55 31 -22 63 -39 70 -39
17 0 87 47 132 88 l36 32 0 130 c0 118 -2 130 -19 140 -19 9 -228 12 -262 3z
m199 -159 c-4 -94 -5 -97 -36 -125 -18 -16 -43 -29 -56 -29 -30 0 -36 28 -36
156 l0 94 66 0 66 0 -4 -96z"/>
<path d="M3968 6840 c-190 -3 -348 -7 -350 -10 -2 -3 -2 -45 0 -94 l4 -89 168
6 c190 6 369 -6 382 -25 4 -7 8 -120 8 -251 0 -140 4 -246 10 -257 16 -30 60
-74 133 -129 l67 -53 0 -164 c0 -187 1 -183 -79 -168 l-46 9 -3 162 -2 163
-30 15 c-56 29 -55 34 -55 -210 l-1 -225 126 1 c69 1 138 4 154 8 l30 6 -2
110 c-1 61 -5 150 -9 199 -5 80 -9 92 -37 124 -16 19 -54 52 -83 73 -89 66
-88 62 -86 382 l2 278 -252 -1 c-139 -1 -267 -1 -284 0 -31 0 -33 2 -33 35 0
19 3 35 8 36 13 0 1226 1 1245 0 14 -1 18 -8 15 -33 l-3 -33 -275 -2 c-151 -2
-281 -3 -288 -3 -11 0 -13 -54 -10 -296 3 -282 4 -296 23 -310 11 -8 31 -14
45 -12 20 2 24 8 22 28 -11 99 -13 223 -7 364 l7 165 264 3 c218 2 266 6 278
18 21 21 25 158 5 171 -8 5 -108 9 -224 10 -115 0 -273 1 -350 2 -77 1 -296 0
-487 -3z"/>
<path d="M6178 6834 c-1 -5 -2 -63 -3 -129 l0 -120 -41 -9 c-40 -8 -42 -10
-48 -54 -16 -115 -5 -142 58 -145 l36 -2 0 -133 0 -134 43 -41 c24 -23 67 -61
95 -85 29 -24 54 -53 56 -65 39 -188 75 -219 275 -233 l93 -7 -6 -45 c-3 -25
-8 -47 -10 -49 -2 -3 -30 1 -63 7 -32 7 -78 16 -103 20 -129 21 -235 84 -267
158 -8 20 -19 45 -24 54 -5 10 -9 38 -9 62 0 50 -24 76 -68 76 -21 0 -23 -3
-17 -22 4 -13 11 -55 15 -94 5 -39 15 -85 24 -101 35 -68 163 -157 264 -183
160 -41 169 -42 256 -37 49 3 92 10 97 14 9 9 12 57 10 134 l-1 57 -90 1
c-201 3 -267 37 -291 151 -16 79 -30 100 -102 161 -36 30 -70 64 -76 77 -6 13
-11 82 -11 162 l0 139 -50 7 c-48 6 -50 8 -50 39 0 18 7 38 15 45 10 9 15 9
15 1 0 -18 28 -13 51 10 19 19 21 30 18 137 l-3 117 64 -3 c36 -2 66 -4 67 -5
1 -2 -2 -50 -6 -107 -5 -58 -6 -108 -2 -111 3 -4 63 -2 133 3 70 6 134 8 143
4 13 -5 15 -19 13 -73 l-3 -68 -144 4 -143 4 4 -157 c3 -123 7 -159 19 -167
37 -23 39 -13 37 134 l-3 142 147 3 146 3 7 69 c4 38 4 82 0 99 l-7 31 -118 0
c-64 0 -132 3 -150 6 l-32 7 7 118 8 119 -121 0 c-66 0 -127 3 -136 6 -9 3
-17 2 -18 -2z"/>
<path d="M7030 6803 c0 -47 21 -104 47 -130 23 -24 28 -25 111 -20 48 4 88 7
88 7 6 1 33 82 38 114 5 28 4 41 -6 47 -7 5 -73 9 -145 9 l-133 0 0 -27z m210
-63 l0 -40 -44 0 c-61 0 -76 8 -76 39 0 38 5 41 67 41 l53 0 0 -40z"/>
<path d="M5205 6581 c-136 -18 -276 -69 -343 -126 -19 -16 -46 -47 -60 -69
-23 -36 -26 -54 -30 -153 -5 -132 3 -160 59 -199 62 -43 117 -108 125 -149 14
-76 50 -133 106 -165 l53 -30 246 0 c136 0 260 3 276 6 44 9 123 73 147 119
18 34 21 63 24 200 5 200 -6 261 -56 317 -19 22 -54 49 -76 61 -39 21 -53 22
-301 22 l-260 0 -55 -31 c-72 -40 -94 -81 -98 -189 -1 -44 1 -86 6 -94 6 -7
27 -14 47 -15 l38 -1 -2 85 c-2 106 15 144 79 178 44 23 50 23 255 20 233 -4
257 -9 296 -71 18 -30 20 -47 17 -256 l-3 -223 -33 -27 c-48 -41 -92 -51 -242
-58 -171 -7 -259 6 -314 46 -35 25 -44 40 -64 102 -24 79 -40 102 -117 164
-87 70 -85 66 -85 155 0 107 37 179 119 233 70 47 134 59 237 46 85 -10 271
-7 420 7 52 5 68 2 115 -21 62 -30 94 -55 129 -105 l25 -35 0 -271 c-1 -258
-2 -272 -22 -305 -24 -38 -58 -66 -118 -96 -73 -37 -140 -45 -338 -42 -103 2
-187 1 -187 -4 0 -4 -10 -5 -22 -3 -13 3 -61 12 -108 21 -153 30 -229 111
-255 273 -6 40 -26 62 -54 62 -19 0 -13 -160 8 -205 41 -92 199 -192 346 -220
87 -17 310 -19 425 -5 174 22 337 108 392 207 l29 52 0 249 c-1 187 -5 262
-16 298 -28 95 -146 179 -318 226 -80 22 -335 33 -442 19z"/>
<path d="M7074 6583 l-50 -4 4 -237 c3 -195 7 -240 20 -254 8 -10 21 -18 27
-18 7 0 15 -6 18 -14 3 -8 33 -33 67 -56 34 -23 65 -53 71 -66 5 -14 9 -92 9
-174 0 -167 1 -164 -75 -153 l-45 6 0 153 c0 96 -4 154 -10 154 -6 0 -9 5 -7
12 2 13 -39 38 -64 38 -14 0 -16 -24 -15 -217 l1 -217 33 -8 c18 -5 85 -7 150
-6 l117 3 -3 204 c-4 230 -4 228 -80 281 -26 18 -64 49 -84 69 l-38 35 0 194
0 193 63 -3 62 -3 3 -190 c2 -179 3 -191 23 -207 12 -10 29 -18 39 -18 16 0
17 19 18 249 l2 249 -31 6 c-31 6 -129 6 -225 -1z"/>
<path d="M3999 5429 c-239 -18 -444 -69 -589 -146 -153 -81 -238 -160 -299
-281 -51 -101 -59 -153 -64 -426 -5 -243 -5 -251 19 -335 64 -221 235 -376
514 -466 219 -70 186 -68 927 -72 l672 -4 3 196 c2 108 1 199 -1 201 -2 2
-189 4 -415 4 -578 0 -836 19 -931 67 -87 45 -136 114 -166 233 -18 72 -19
341 -1 392 34 97 116 159 259 196 60 15 126 17 568 17 451 0 508 -2 580 -19
146 -33 220 -93 265 -213 20 -53 21 -72 18 -432 l-3 -376 23 -43 c32 -60 91
-122 181 -190 159 -119 191 -159 191 -239 0 -235 -96 -368 -341 -474 -206 -89
-298 -99 -914 -99 -628 0 -719 11 -925 112 -83 41 -119 66 -173 120 -69 70
-122 162 -134 234 l-6 34 85 0 85 0 22 -43 c57 -111 161 -215 257 -258 77 -35
229 -69 354 -80 161 -15 694 -15 875 -1 291 23 470 104 576 262 59 88 84 223
48 266 -19 23 -167 124 -182 124 -11 0 -15 -27 -19 -123 -4 -103 -9 -131 -28
-170 -33 -67 -85 -115 -157 -148 -111 -51 -192 -61 -585 -66 -596 -8 -756 17
-858 135 -44 52 -67 108 -78 197 l-7 60 -300 0 -300 0 2 -92 c4 -207 73 -346
235 -475 255 -204 546 -257 1333 -245 377 6 490 14 650 47 362 74 640 289 685
529 13 70 13 216 0 263 -15 52 -92 132 -224 232 -62 47 -121 96 -129 110 -13
20 -16 81 -20 402 -4 433 -9 470 -79 575 -51 76 -120 128 -223 167 -187 71
-354 86 -870 79 -415 -6 -521 -17 -658 -65 -160 -57 -261 -165 -302 -322 -21
-80 -15 -301 10 -395 26 -93 74 -183 133 -247 73 -78 161 -120 312 -149 106
-21 150 -23 582 -27 370 -3 469 -6 478 -17 6 -8 8 -29 4 -54 l-7 -41 -101 -1
c-357 -4 -912 2 -977 11 -276 38 -498 169 -585 347 l-29 58 0 301 0 300 38 77
c46 92 102 145 225 210 114 60 215 92 344 111 152 23 1117 23 1258 1 116 -19
261 -65 355 -114 133 -69 233 -200 255 -336 5 -33 10 -223 10 -421 0 -199 3
-374 6 -390 8 -39 131 -139 171 -139 l28 0 0 485 c0 429 -2 492 -17 547 -37
135 -110 231 -236 316 -194 129 -409 196 -702 216 -167 12 -845 12 -1001 0z"/>
<path d="M7003 5433 c-18 -7 -99 -88 -247 -248 -71 -77 -166 -178 -210 -225
-45 -47 -114 -121 -154 -166 -67 -75 -72 -84 -72 -127 0 -35 4 -47 18 -50 9
-3 149 -4 310 -3 l294 1 26 31 c15 17 40 45 55 63 57 66 58 64 60 -354 l2
-380 25 -49 c29 -56 95 -126 184 -193 88 -68 127 -102 159 -141 l27 -35 0
-313 c0 -358 7 -334 -92 -334 -94 0 -92 -6 -85 246 4 120 4 263 0 317 l-6 98
-62 45 c-81 58 -135 80 -146 62 -12 -19 -11 -880 1 -898 8 -13 52 -15 296 -14
271 0 287 1 301 20 22 29 13 812 -10 847 -29 44 -130 136 -242 219 -62 46
-116 92 -119 103 -3 11 -6 227 -6 481 0 253 -3 522 -7 597 l-6 137 -39 0 c-21
0 -50 -8 -64 -17 -14 -9 -93 -89 -176 -177 -193 -207 -193 -207 -287 -204 -43
2 -76 8 -78 14 -2 6 47 65 110 130 62 65 153 166 201 223 125 146 114 141 334
141 l182 0 0 -641 0 -640 50 -48 c61 -59 145 -107 156 -90 10 16 19 1472 10
1533 l-7 46 -337 -1 c-185 -1 -343 -3 -349 -6z"/>
<path d="M6444 591 c-2 -2 -4 -136 -4 -298 l0 -293 183 2 182 3 3 26 c3 26 2
26 -74 32 -42 4 -99 7 -126 7 l-48 0 0 80 0 79 93 3 92 3 -3 45 c-2 25 -5 46
-7 48 -1 1 -41 6 -89 9 l-86 6 0 83 0 84 113 0 c61 0 118 4 126 9 9 6 11 18 7
35 -6 26 -8 26 -99 27 -50 0 -129 4 -175 7 -46 4 -85 5 -88 3z"/>
<path d="M5490 581 c-47 -10 -73 -25 -102 -60 -23 -26 -25 -40 -31 -157 -8
-184 2 -287 31 -314 12 -11 22 -27 22 -35 0 -13 25 -15 150 -15 125 0 150 2
150 15 0 8 12 26 28 40 l27 25 3 179 c4 209 -4 253 -51 282 -58 35 -163 54
-227 40z m127 -101 c9 -17 13 -79 13 -197 0 -160 -2 -175 -20 -193 -26 -26
-70 -26 -104 1 l-26 20 0 184 c0 213 2 218 78 213 38 -2 49 -8 59 -28z"/>
<path d="M5887 438 c-4 -83 -7 -216 -7 -295 l0 -144 63 3 62 3 5 110 5 110 43
-1 c26 0 47 -7 53 -15 4 -8 23 -58 40 -111 l31 -98 64 0 c35 0 64 1 64 3 0 8
-33 105 -59 175 -33 88 -33 102 0 102 27 0 39 37 39 122 0 149 -33 170 -286
183 l-111 5 -6 -152z m275 64 c3 -4 9 -42 13 -84 l7 -77 -32 -19 c-41 -25
-108 -36 -126 -21 -10 8 -14 38 -14 109 0 53 3 100 8 104 8 9 134 -2 144 -12z"/>
<path d="M4427 570 c-40 -12 -58 -29 -79 -78 -36 -80 -12 -116 165 -246 92
-68 107 -83 107 -108 0 -43 -31 -68 -87 -68 -57 0 -68 6 -82 43 -6 15 -22 32
-36 37 -33 13 -95 13 -95 0 0 -19 25 -66 52 -98 15 -18 28 -37 28 -42 0 -14
111 -12 167 3 37 9 47 9 50 0 7 -20 63 -16 70 5 3 9 19 31 35 49 27 28 29 36
23 72 -9 56 -34 83 -170 185 -122 92 -137 114 -113 163 10 21 23 29 51 34 37
6 57 -2 101 -43 22 -20 78 -33 101 -24 22 8 18 40 -9 65 -54 51 -194 76 -279
51z"/>
<path d="M4845 561 c-10 -34 2 -41 71 -41 l64 0 0 -117 c0 -65 3 -182 7 -261
l6 -142 63 0 64 0 2 257 3 258 58 3 c48 3 57 6 57 22 0 10 -3 21 -7 23 -5 3
-92 8 -194 12 -185 7 -187 7 -194 -14z"/>
</g>
</svg>
